<mxfile host="app.diagrams.net" modified="2021-02-19T21:07:15.740Z" agent="5.0 (Macintosh; Intel Mac OS X 10_15_7) AppleWebKit/537.36 (KHTML, like Gecko) Chrome/88.0.4324.150 Safari/537.36" etag="8ZZhpXShqKq1VMhXsHLr" version="14.3.1" type="github" pages="5">
  <diagram id="YM5_balRlLsAySiBHn6m" name="Page-1">
    <mxGraphModel dx="1186" dy="646" grid="1" gridSize="10" guides="1" tooltips="1" connect="1" arrows="1" fold="1" page="1" pageScale="1" pageWidth="827" pageHeight="1169" math="0" shadow="0">
      <root>
        <mxCell id="0" />
        <mxCell id="1" parent="0" />
        <mxCell id="wzAjLbh7rTwiQ1dcUbAy-5" style="edgeStyle=orthogonalEdgeStyle;rounded=0;orthogonalLoop=1;jettySize=auto;html=1;" parent="1" source="wzAjLbh7rTwiQ1dcUbAy-1" target="wzAjLbh7rTwiQ1dcUbAy-4" edge="1">
          <mxGeometry relative="1" as="geometry" />
        </mxCell>
        <mxCell id="wzAjLbh7rTwiQ1dcUbAy-1" value="Wake Up" style="rounded=1;whiteSpace=wrap;html=1;" parent="1" vertex="1">
          <mxGeometry x="310" y="100" width="120" height="50" as="geometry" />
        </mxCell>
        <mxCell id="wzAjLbh7rTwiQ1dcUbAy-10" style="edgeStyle=orthogonalEdgeStyle;rounded=0;orthogonalLoop=1;jettySize=auto;html=1;" parent="1" source="wzAjLbh7rTwiQ1dcUbAy-4" edge="1">
          <mxGeometry relative="1" as="geometry">
            <mxPoint x="370" y="330" as="targetPoint" />
          </mxGeometry>
        </mxCell>
        <mxCell id="wzAjLbh7rTwiQ1dcUbAy-15" style="edgeStyle=orthogonalEdgeStyle;rounded=0;orthogonalLoop=1;jettySize=auto;html=1;entryX=0;entryY=0.5;entryDx=0;entryDy=0;" parent="1" source="wzAjLbh7rTwiQ1dcUbAy-4" target="wzAjLbh7rTwiQ1dcUbAy-14" edge="1">
          <mxGeometry relative="1" as="geometry" />
        </mxCell>
        <mxCell id="wzAjLbh7rTwiQ1dcUbAy-4" value="Bathroom?" style="rhombus;whiteSpace=wrap;html=1;" parent="1" vertex="1">
          <mxGeometry x="330" y="210" width="80" height="80" as="geometry" />
        </mxCell>
        <mxCell id="wzAjLbh7rTwiQ1dcUbAy-20" style="edgeStyle=orthogonalEdgeStyle;rounded=0;orthogonalLoop=1;jettySize=auto;html=1;" parent="1" source="wzAjLbh7rTwiQ1dcUbAy-6" edge="1">
          <mxGeometry relative="1" as="geometry">
            <mxPoint x="330" y="510" as="targetPoint" />
          </mxGeometry>
        </mxCell>
        <mxCell id="wzAjLbh7rTwiQ1dcUbAy-6" value="Eat breakfast" style="rounded=1;whiteSpace=wrap;html=1;" parent="1" vertex="1">
          <mxGeometry x="270" y="390" width="120" height="60" as="geometry" />
        </mxCell>
        <mxCell id="wzAjLbh7rTwiQ1dcUbAy-21" style="edgeStyle=orthogonalEdgeStyle;rounded=0;orthogonalLoop=1;jettySize=auto;html=1;" parent="1" source="wzAjLbh7rTwiQ1dcUbAy-8" edge="1">
          <mxGeometry relative="1" as="geometry">
            <mxPoint x="570" y="510" as="targetPoint" />
          </mxGeometry>
        </mxCell>
        <mxCell id="wzAjLbh7rTwiQ1dcUbAy-8" value="Watch the news" style="rounded=1;whiteSpace=wrap;html=1;" parent="1" vertex="1">
          <mxGeometry x="510" y="390" width="120" height="60" as="geometry" />
        </mxCell>
        <mxCell id="wzAjLbh7rTwiQ1dcUbAy-9" value="" style="endArrow=none;html=1;" parent="1" edge="1">
          <mxGeometry width="50" height="50" relative="1" as="geometry">
            <mxPoint x="290" y="330" as="sourcePoint" />
            <mxPoint x="620" y="330" as="targetPoint" />
          </mxGeometry>
        </mxCell>
        <mxCell id="wzAjLbh7rTwiQ1dcUbAy-11" value="" style="endArrow=classic;html=1;" parent="1" target="wzAjLbh7rTwiQ1dcUbAy-6" edge="1">
          <mxGeometry width="50" height="50" relative="1" as="geometry">
            <mxPoint x="330" y="330" as="sourcePoint" />
            <mxPoint x="440" y="300" as="targetPoint" />
          </mxGeometry>
        </mxCell>
        <mxCell id="wzAjLbh7rTwiQ1dcUbAy-12" value="" style="endArrow=classic;html=1;" parent="1" edge="1">
          <mxGeometry width="50" height="50" relative="1" as="geometry">
            <mxPoint x="570" y="330" as="sourcePoint" />
            <mxPoint x="570" y="390" as="targetPoint" />
          </mxGeometry>
        </mxCell>
        <mxCell id="wzAjLbh7rTwiQ1dcUbAy-17" style="edgeStyle=orthogonalEdgeStyle;rounded=0;orthogonalLoop=1;jettySize=auto;html=1;" parent="1" source="wzAjLbh7rTwiQ1dcUbAy-14" edge="1">
          <mxGeometry relative="1" as="geometry">
            <mxPoint x="520" y="330" as="targetPoint" />
          </mxGeometry>
        </mxCell>
        <mxCell id="wzAjLbh7rTwiQ1dcUbAy-14" value="Use Bathroom" style="rounded=1;whiteSpace=wrap;html=1;" parent="1" vertex="1">
          <mxGeometry x="460" y="220" width="120" height="60" as="geometry" />
        </mxCell>
        <mxCell id="wzAjLbh7rTwiQ1dcUbAy-18" value="Yes" style="text;html=1;align=center;verticalAlign=middle;resizable=0;points=[];autosize=1;" parent="1" vertex="1">
          <mxGeometry x="410" y="230" width="40" height="20" as="geometry" />
        </mxCell>
        <mxCell id="wzAjLbh7rTwiQ1dcUbAy-19" value="No" style="text;html=1;align=center;verticalAlign=middle;resizable=0;points=[];autosize=1;" parent="1" vertex="1">
          <mxGeometry x="365" y="290" width="30" height="20" as="geometry" />
        </mxCell>
        <mxCell id="wzAjLbh7rTwiQ1dcUbAy-22" value="" style="endArrow=none;html=1;" parent="1" edge="1">
          <mxGeometry width="50" height="50" relative="1" as="geometry">
            <mxPoint x="290" y="510" as="sourcePoint" />
            <mxPoint x="620" y="510" as="targetPoint" />
          </mxGeometry>
        </mxCell>
        <mxCell id="wzAjLbh7rTwiQ1dcUbAy-24" style="edgeStyle=orthogonalEdgeStyle;rounded=0;orthogonalLoop=1;jettySize=auto;html=1;" parent="1" edge="1">
          <mxGeometry relative="1" as="geometry">
            <mxPoint x="450" y="590" as="targetPoint" />
            <mxPoint x="450" y="510" as="sourcePoint" />
            <Array as="points">
              <mxPoint x="450" y="540" />
              <mxPoint x="450" y="540" />
            </Array>
          </mxGeometry>
        </mxCell>
        <mxCell id="wzAjLbh7rTwiQ1dcUbAy-26" style="edgeStyle=orthogonalEdgeStyle;rounded=0;orthogonalLoop=1;jettySize=auto;html=1;" parent="1" source="wzAjLbh7rTwiQ1dcUbAy-28" edge="1">
          <mxGeometry relative="1" as="geometry">
            <mxPoint x="450" y="710" as="targetPoint" />
          </mxGeometry>
        </mxCell>
        <mxCell id="wzAjLbh7rTwiQ1dcUbAy-27" style="edgeStyle=orthogonalEdgeStyle;rounded=0;orthogonalLoop=1;jettySize=auto;html=1;entryX=0;entryY=0.5;entryDx=0;entryDy=0;" parent="1" source="wzAjLbh7rTwiQ1dcUbAy-28" edge="1">
          <mxGeometry relative="1" as="geometry">
            <mxPoint x="540" y="630" as="targetPoint" />
          </mxGeometry>
        </mxCell>
        <mxCell id="wzAjLbh7rTwiQ1dcUbAy-28" value="Weekday?" style="rhombus;whiteSpace=wrap;html=1;" parent="1" vertex="1">
          <mxGeometry x="410" y="590" width="80" height="80" as="geometry" />
        </mxCell>
        <mxCell id="wzAjLbh7rTwiQ1dcUbAy-29" value="Yes" style="text;html=1;align=center;verticalAlign=middle;resizable=0;points=[];autosize=1;" parent="1" vertex="1">
          <mxGeometry x="490" y="610" width="40" height="20" as="geometry" />
        </mxCell>
        <mxCell id="wzAjLbh7rTwiQ1dcUbAy-30" value="No" style="text;html=1;align=center;verticalAlign=middle;resizable=0;points=[];autosize=1;" parent="1" vertex="1">
          <mxGeometry x="445" y="670" width="30" height="20" as="geometry" />
        </mxCell>
        <mxCell id="wzAjLbh7rTwiQ1dcUbAy-32" value="put on clothes and go to work" style="rounded=1;whiteSpace=wrap;html=1;" parent="1" vertex="1">
          <mxGeometry x="540" y="600" width="120" height="60" as="geometry" />
        </mxCell>
        <mxCell id="wzAjLbh7rTwiQ1dcUbAy-33" value="put on leisure clothes and make a plan" style="rounded=1;whiteSpace=wrap;html=1;" parent="1" vertex="1">
          <mxGeometry x="395" y="710" width="120" height="60" as="geometry" />
        </mxCell>
      </root>
    </mxGraphModel>
  </diagram>
  <diagram id="MB9-FTvkELiNg7igDeXp" name="Page-2">
    <mxGraphModel dx="1186" dy="646" grid="1" gridSize="10" guides="1" tooltips="1" connect="1" arrows="1" fold="1" page="1" pageScale="1" pageWidth="827" pageHeight="1169" math="0" shadow="0">
      <root>
        <mxCell id="rsSawYi3r9QjYMuF1CPx-0" />
        <mxCell id="rsSawYi3r9QjYMuF1CPx-1" parent="rsSawYi3r9QjYMuF1CPx-0" />
        <mxCell id="rsSawYi3r9QjYMuF1CPx-2" value="&lt;meta charset=&quot;utf-8&quot;&gt;&lt;span style=&quot;color: rgba(0, 0, 0, 0.87); font-family: roboto, helvetica, arial, sans-serif; font-size: 16px; font-style: normal; font-weight: 400; letter-spacing: 0.15008px; text-indent: 0px; text-transform: none; word-spacing: 0px; background-color: rgb(255, 255, 255); display: inline; float: none;&quot;&gt;&lt;span&gt;&amp;nbsp;&lt;/span&gt;“Look left. Look right. Are there any cars coming? If not, cross the road. If yes, wait for 5 seconds and then start looking left again.”&lt;/span&gt;" style="text;whiteSpace=wrap;html=1;" vertex="1" parent="rsSawYi3r9QjYMuF1CPx-1">
          <mxGeometry x="110" width="550" height="50" as="geometry" />
        </mxCell>
        <mxCell id="rsSawYi3r9QjYMuF1CPx-3" style="edgeStyle=orthogonalEdgeStyle;rounded=0;orthogonalLoop=1;jettySize=auto;html=1;entryX=0.5;entryY=0;entryDx=0;entryDy=0;" edge="1" parent="rsSawYi3r9QjYMuF1CPx-1" source="rsSawYi3r9QjYMuF1CPx-4" target="rsSawYi3r9QjYMuF1CPx-5">
          <mxGeometry relative="1" as="geometry" />
        </mxCell>
        <mxCell id="rsSawYi3r9QjYMuF1CPx-4" value="Look Left" style="rounded=1;whiteSpace=wrap;html=1;" vertex="1" parent="rsSawYi3r9QjYMuF1CPx-1">
          <mxGeometry x="294" y="70" width="120" height="50" as="geometry" />
        </mxCell>
        <mxCell id="rsSawYi3r9QjYMuF1CPx-7" value="" style="edgeStyle=orthogonalEdgeStyle;rounded=0;orthogonalLoop=1;jettySize=auto;html=1;" edge="1" parent="rsSawYi3r9QjYMuF1CPx-1" source="rsSawYi3r9QjYMuF1CPx-5" target="rsSawYi3r9QjYMuF1CPx-6">
          <mxGeometry relative="1" as="geometry" />
        </mxCell>
        <mxCell id="rsSawYi3r9QjYMuF1CPx-5" value="Look Right" style="rounded=1;whiteSpace=wrap;html=1;" vertex="1" parent="rsSawYi3r9QjYMuF1CPx-1">
          <mxGeometry x="294" y="160" width="120" height="50" as="geometry" />
        </mxCell>
        <mxCell id="rsSawYi3r9QjYMuF1CPx-9" value="" style="edgeStyle=orthogonalEdgeStyle;rounded=0;orthogonalLoop=1;jettySize=auto;html=1;" edge="1" parent="rsSawYi3r9QjYMuF1CPx-1" source="rsSawYi3r9QjYMuF1CPx-6" target="rsSawYi3r9QjYMuF1CPx-8">
          <mxGeometry relative="1" as="geometry" />
        </mxCell>
        <mxCell id="rsSawYi3r9QjYMuF1CPx-12" value="" style="edgeStyle=orthogonalEdgeStyle;rounded=0;orthogonalLoop=1;jettySize=auto;html=1;" edge="1" parent="rsSawYi3r9QjYMuF1CPx-1" source="rsSawYi3r9QjYMuF1CPx-6" target="rsSawYi3r9QjYMuF1CPx-11">
          <mxGeometry relative="1" as="geometry" />
        </mxCell>
        <mxCell id="rsSawYi3r9QjYMuF1CPx-6" value="Cars?" style="rhombus;whiteSpace=wrap;html=1;" vertex="1" parent="rsSawYi3r9QjYMuF1CPx-1">
          <mxGeometry x="314" y="250" width="80" height="80" as="geometry" />
        </mxCell>
        <mxCell id="rsSawYi3r9QjYMuF1CPx-8" value="Cross the road" style="rounded=1;whiteSpace=wrap;html=1;" vertex="1" parent="rsSawYi3r9QjYMuF1CPx-1">
          <mxGeometry x="150" y="265" width="120" height="50" as="geometry" />
        </mxCell>
        <mxCell id="rsSawYi3r9QjYMuF1CPx-10" value="No" style="text;html=1;align=center;verticalAlign=middle;resizable=0;points=[];autosize=1;" vertex="1" parent="rsSawYi3r9QjYMuF1CPx-1">
          <mxGeometry x="284" y="265" width="30" height="20" as="geometry" />
        </mxCell>
        <mxCell id="rsSawYi3r9QjYMuF1CPx-13" style="edgeStyle=orthogonalEdgeStyle;rounded=0;orthogonalLoop=1;jettySize=auto;html=1;entryX=1;entryY=0.5;entryDx=0;entryDy=0;" edge="1" parent="rsSawYi3r9QjYMuF1CPx-1" source="rsSawYi3r9QjYMuF1CPx-11" target="rsSawYi3r9QjYMuF1CPx-4">
          <mxGeometry relative="1" as="geometry">
            <mxPoint x="470" y="300" as="targetPoint" />
            <Array as="points">
              <mxPoint x="450" y="398" />
              <mxPoint x="450" y="95" />
            </Array>
          </mxGeometry>
        </mxCell>
        <mxCell id="rsSawYi3r9QjYMuF1CPx-11" value="Wait 5 Sec" style="rounded=1;whiteSpace=wrap;html=1;" vertex="1" parent="rsSawYi3r9QjYMuF1CPx-1">
          <mxGeometry x="309" y="370" width="90" height="55" as="geometry" />
        </mxCell>
        <mxCell id="rsSawYi3r9QjYMuF1CPx-14" value="Yes" style="text;html=1;align=center;verticalAlign=middle;resizable=0;points=[];autosize=1;" vertex="1" parent="rsSawYi3r9QjYMuF1CPx-1">
          <mxGeometry x="350" y="330" width="40" height="20" as="geometry" />
        </mxCell>
      </root>
    </mxGraphModel>
  </diagram>
  <diagram id="824TNXQoktfaOCZyB_A3" name="Page-3">
    <mxGraphModel dx="1186" dy="646" grid="1" gridSize="10" guides="1" tooltips="1" connect="1" arrows="1" fold="1" page="1" pageScale="1" pageWidth="827" pageHeight="1169" math="0" shadow="0">
      <root>
        <mxCell id="zYbEtL5pjXMR27pWqpPd-0" />
        <mxCell id="zYbEtL5pjXMR27pWqpPd-1" parent="zYbEtL5pjXMR27pWqpPd-0" />
        <mxCell id="zYbEtL5pjXMR27pWqpPd-2" value="&lt;meta charset=&quot;utf-8&quot;&gt;&lt;span style=&quot;color: rgba(0, 0, 0, 0.87); font-family: roboto, helvetica, arial, sans-serif; font-size: 16px; font-style: normal; font-weight: 400; letter-spacing: 0.15008px; text-indent: 0px; text-transform: none; word-spacing: 0px; background-color: rgb(255, 255, 255); display: inline; float: none;&quot;&gt;Create an Activity Diagram for a simple &quot;Guess the number!&quot; game, where the player has to guess a randomly selected number between 1 and 10. The process is roughly the following: The computer randomly selects a number between 1 and 10, then asks the player to guess it. The player enters a number. The computer checks if it is smaller, equal or greater than the number to guess. If smaller/greater, it displays &quot;Too small!&quot;/&quot;Too big!&quot; and goes back to letting the player enter a number. If equal, it displays &quot;Yes!&quot;. Then it asks the player if he wants to play again. If yes, it goes back to the beginning, if not, the game ends.&lt;/span&gt;" style="text;whiteSpace=wrap;html=1;" vertex="1" parent="zYbEtL5pjXMR27pWqpPd-1">
          <mxGeometry x="20" y="20" width="780" height="150" as="geometry" />
        </mxCell>
        <mxCell id="zYbEtL5pjXMR27pWqpPd-5" value="" style="edgeStyle=orthogonalEdgeStyle;rounded=0;orthogonalLoop=1;jettySize=auto;html=1;" edge="1" parent="zYbEtL5pjXMR27pWqpPd-1" source="zYbEtL5pjXMR27pWqpPd-3" target="zYbEtL5pjXMR27pWqpPd-4">
          <mxGeometry relative="1" as="geometry" />
        </mxCell>
        <mxCell id="zYbEtL5pjXMR27pWqpPd-3" value="Select a number between 1-10 (X)" style="rounded=1;whiteSpace=wrap;html=1;" vertex="1" parent="zYbEtL5pjXMR27pWqpPd-1">
          <mxGeometry x="30" y="180" width="80" height="60" as="geometry" />
        </mxCell>
        <mxCell id="zYbEtL5pjXMR27pWqpPd-7" value="" style="edgeStyle=orthogonalEdgeStyle;rounded=0;orthogonalLoop=1;jettySize=auto;html=1;" edge="1" parent="zYbEtL5pjXMR27pWqpPd-1" source="zYbEtL5pjXMR27pWqpPd-4" target="zYbEtL5pjXMR27pWqpPd-6">
          <mxGeometry relative="1" as="geometry" />
        </mxCell>
        <mxCell id="zYbEtL5pjXMR27pWqpPd-4" value="Ask player to guess" style="rounded=1;whiteSpace=wrap;html=1;" vertex="1" parent="zYbEtL5pjXMR27pWqpPd-1">
          <mxGeometry x="150" y="180" width="80" height="60" as="geometry" />
        </mxCell>
        <mxCell id="zYbEtL5pjXMR27pWqpPd-9" value="" style="edgeStyle=orthogonalEdgeStyle;rounded=0;orthogonalLoop=1;jettySize=auto;html=1;" edge="1" parent="zYbEtL5pjXMR27pWqpPd-1" source="zYbEtL5pjXMR27pWqpPd-6" target="zYbEtL5pjXMR27pWqpPd-8">
          <mxGeometry relative="1" as="geometry" />
        </mxCell>
        <mxCell id="zYbEtL5pjXMR27pWqpPd-6" value="Get the number from the player (Y)" style="rounded=1;whiteSpace=wrap;html=1;" vertex="1" parent="zYbEtL5pjXMR27pWqpPd-1">
          <mxGeometry x="270" y="180" width="80" height="60" as="geometry" />
        </mxCell>
        <mxCell id="zYbEtL5pjXMR27pWqpPd-11" value="" style="edgeStyle=orthogonalEdgeStyle;rounded=0;orthogonalLoop=1;jettySize=auto;html=1;" edge="1" parent="zYbEtL5pjXMR27pWqpPd-1" source="zYbEtL5pjXMR27pWqpPd-8" target="zYbEtL5pjXMR27pWqpPd-10">
          <mxGeometry relative="1" as="geometry" />
        </mxCell>
        <mxCell id="zYbEtL5pjXMR27pWqpPd-19" value="" style="edgeStyle=orthogonalEdgeStyle;rounded=0;orthogonalLoop=1;jettySize=auto;html=1;" edge="1" parent="zYbEtL5pjXMR27pWqpPd-1" source="zYbEtL5pjXMR27pWqpPd-8" target="zYbEtL5pjXMR27pWqpPd-18">
          <mxGeometry relative="1" as="geometry" />
        </mxCell>
        <mxCell id="zYbEtL5pjXMR27pWqpPd-8" value="Y&amp;gt;X ?" style="rhombus;whiteSpace=wrap;html=1;rounded=1;" vertex="1" parent="zYbEtL5pjXMR27pWqpPd-1">
          <mxGeometry x="390" y="170" width="80" height="80" as="geometry" />
        </mxCell>
        <mxCell id="zYbEtL5pjXMR27pWqpPd-13" value="" style="edgeStyle=orthogonalEdgeStyle;rounded=0;orthogonalLoop=1;jettySize=auto;html=1;" edge="1" parent="zYbEtL5pjXMR27pWqpPd-1" source="zYbEtL5pjXMR27pWqpPd-10" target="zYbEtL5pjXMR27pWqpPd-12">
          <mxGeometry relative="1" as="geometry" />
        </mxCell>
        <mxCell id="zYbEtL5pjXMR27pWqpPd-21" value="" style="edgeStyle=orthogonalEdgeStyle;rounded=0;orthogonalLoop=1;jettySize=auto;html=1;" edge="1" parent="zYbEtL5pjXMR27pWqpPd-1" source="zYbEtL5pjXMR27pWqpPd-10" target="zYbEtL5pjXMR27pWqpPd-20">
          <mxGeometry relative="1" as="geometry" />
        </mxCell>
        <mxCell id="zYbEtL5pjXMR27pWqpPd-10" value="Y&amp;lt;X ?" style="rhombus;whiteSpace=wrap;html=1;rounded=1;" vertex="1" parent="zYbEtL5pjXMR27pWqpPd-1">
          <mxGeometry x="560" y="170" width="80" height="80" as="geometry" />
        </mxCell>
        <mxCell id="zYbEtL5pjXMR27pWqpPd-23" value="" style="edgeStyle=orthogonalEdgeStyle;rounded=0;orthogonalLoop=1;jettySize=auto;html=1;" edge="1" parent="zYbEtL5pjXMR27pWqpPd-1" source="zYbEtL5pjXMR27pWqpPd-12" target="zYbEtL5pjXMR27pWqpPd-22">
          <mxGeometry relative="1" as="geometry" />
        </mxCell>
        <mxCell id="zYbEtL5pjXMR27pWqpPd-12" value="Y = X ?" style="rhombus;whiteSpace=wrap;html=1;rounded=1;" vertex="1" parent="zYbEtL5pjXMR27pWqpPd-1">
          <mxGeometry x="720" y="170" width="80" height="80" as="geometry" />
        </mxCell>
        <mxCell id="zYbEtL5pjXMR27pWqpPd-14" value="NO" style="text;html=1;align=center;verticalAlign=middle;resizable=0;points=[];autosize=1;" vertex="1" parent="zYbEtL5pjXMR27pWqpPd-1">
          <mxGeometry x="475" y="190" width="30" height="20" as="geometry" />
        </mxCell>
        <mxCell id="zYbEtL5pjXMR27pWqpPd-15" value="NO" style="text;html=1;align=center;verticalAlign=middle;resizable=0;points=[];autosize=1;" vertex="1" parent="zYbEtL5pjXMR27pWqpPd-1">
          <mxGeometry x="660" y="190" width="30" height="20" as="geometry" />
        </mxCell>
        <mxCell id="zYbEtL5pjXMR27pWqpPd-27" style="edgeStyle=orthogonalEdgeStyle;rounded=0;orthogonalLoop=1;jettySize=auto;html=1;" edge="1" parent="zYbEtL5pjXMR27pWqpPd-1" source="zYbEtL5pjXMR27pWqpPd-18" target="zYbEtL5pjXMR27pWqpPd-6">
          <mxGeometry relative="1" as="geometry" />
        </mxCell>
        <mxCell id="zYbEtL5pjXMR27pWqpPd-18" value="Your number is too BIG!" style="whiteSpace=wrap;html=1;rounded=1;" vertex="1" parent="zYbEtL5pjXMR27pWqpPd-1">
          <mxGeometry x="370" y="290" width="120" height="60" as="geometry" />
        </mxCell>
        <mxCell id="zYbEtL5pjXMR27pWqpPd-28" style="edgeStyle=orthogonalEdgeStyle;rounded=0;orthogonalLoop=1;jettySize=auto;html=1;" edge="1" parent="zYbEtL5pjXMR27pWqpPd-1" source="zYbEtL5pjXMR27pWqpPd-20">
          <mxGeometry relative="1" as="geometry">
            <mxPoint x="330" y="320" as="targetPoint" />
            <Array as="points">
              <mxPoint x="600" y="390" />
              <mxPoint x="330" y="390" />
            </Array>
          </mxGeometry>
        </mxCell>
        <mxCell id="zYbEtL5pjXMR27pWqpPd-20" value="Your number is too Small" style="whiteSpace=wrap;html=1;rounded=1;" vertex="1" parent="zYbEtL5pjXMR27pWqpPd-1">
          <mxGeometry x="540" y="290" width="120" height="60" as="geometry" />
        </mxCell>
        <mxCell id="zYbEtL5pjXMR27pWqpPd-30" value="" style="edgeStyle=orthogonalEdgeStyle;rounded=0;orthogonalLoop=1;jettySize=auto;html=1;" edge="1" parent="zYbEtL5pjXMR27pWqpPd-1" source="zYbEtL5pjXMR27pWqpPd-22" target="zYbEtL5pjXMR27pWqpPd-29">
          <mxGeometry relative="1" as="geometry" />
        </mxCell>
        <mxCell id="zYbEtL5pjXMR27pWqpPd-22" value="Well Done!!" style="whiteSpace=wrap;html=1;rounded=1;" vertex="1" parent="zYbEtL5pjXMR27pWqpPd-1">
          <mxGeometry x="700" y="290" width="120" height="60" as="geometry" />
        </mxCell>
        <mxCell id="zYbEtL5pjXMR27pWqpPd-24" value="YES" style="text;html=1;align=center;verticalAlign=middle;resizable=0;points=[];autosize=1;" vertex="1" parent="zYbEtL5pjXMR27pWqpPd-1">
          <mxGeometry x="430" y="250" width="40" height="20" as="geometry" />
        </mxCell>
        <mxCell id="zYbEtL5pjXMR27pWqpPd-25" value="YES" style="text;html=1;align=center;verticalAlign=middle;resizable=0;points=[];autosize=1;" vertex="1" parent="zYbEtL5pjXMR27pWqpPd-1">
          <mxGeometry x="600" y="250" width="40" height="20" as="geometry" />
        </mxCell>
        <mxCell id="zYbEtL5pjXMR27pWqpPd-26" value="YES" style="text;html=1;align=center;verticalAlign=middle;resizable=0;points=[];autosize=1;" vertex="1" parent="zYbEtL5pjXMR27pWqpPd-1">
          <mxGeometry x="760" y="250" width="40" height="20" as="geometry" />
        </mxCell>
        <mxCell id="zYbEtL5pjXMR27pWqpPd-31" style="edgeStyle=orthogonalEdgeStyle;rounded=0;orthogonalLoop=1;jettySize=auto;html=1;entryX=0.5;entryY=1;entryDx=0;entryDy=0;" edge="1" parent="zYbEtL5pjXMR27pWqpPd-1" source="zYbEtL5pjXMR27pWqpPd-29" target="zYbEtL5pjXMR27pWqpPd-3">
          <mxGeometry relative="1" as="geometry" />
        </mxCell>
        <mxCell id="zYbEtL5pjXMR27pWqpPd-32" style="edgeStyle=orthogonalEdgeStyle;rounded=0;orthogonalLoop=1;jettySize=auto;html=1;" edge="1" parent="zYbEtL5pjXMR27pWqpPd-1" source="zYbEtL5pjXMR27pWqpPd-29" target="zYbEtL5pjXMR27pWqpPd-33">
          <mxGeometry relative="1" as="geometry">
            <mxPoint x="760" y="580" as="targetPoint" />
          </mxGeometry>
        </mxCell>
        <mxCell id="zYbEtL5pjXMR27pWqpPd-29" value="Do you want&amp;nbsp; &amp;nbsp; &amp;nbsp; another round?" style="rhombus;whiteSpace=wrap;html=1;rounded=1;" vertex="1" parent="zYbEtL5pjXMR27pWqpPd-1">
          <mxGeometry x="700" y="400" width="120" height="120" as="geometry" />
        </mxCell>
        <mxCell id="zYbEtL5pjXMR27pWqpPd-33" value="" style="ellipse;html=1;shape=endState;fillColor=#000000;strokeColor=#ff0000;" vertex="1" parent="zYbEtL5pjXMR27pWqpPd-1">
          <mxGeometry x="745" y="565" width="30" height="30" as="geometry" />
        </mxCell>
      </root>
    </mxGraphModel>
  </diagram>
  <diagram id="GkgFZVrQsGOFf4upYWEc" name="Page-4">
    <mxGraphModel dx="1186" dy="646" grid="1" gridSize="10" guides="1" tooltips="1" connect="1" arrows="1" fold="1" page="1" pageScale="1" pageWidth="827" pageHeight="1169" math="0" shadow="0">
      <root>
        <mxCell id="ckJ9ybg7etyfyaDhxbhr-0" />
        <mxCell id="ckJ9ybg7etyfyaDhxbhr-1" parent="ckJ9ybg7etyfyaDhxbhr-0" />
        <mxCell id="ckJ9ybg7etyfyaDhxbhr-2" value="Changing Diaper (as a Dad)" style="text;html=1;strokeColor=none;fillColor=none;align=center;verticalAlign=middle;whiteSpace=wrap;rounded=0;" parent="ckJ9ybg7etyfyaDhxbhr-1" vertex="1">
          <mxGeometry x="290" y="10" width="211" height="40" as="geometry" />
        </mxCell>
        <mxCell id="ckJ9ybg7etyfyaDhxbhr-5" value="" style="edgeStyle=orthogonalEdgeStyle;rounded=0;orthogonalLoop=1;jettySize=auto;html=1;" parent="ckJ9ybg7etyfyaDhxbhr-1" source="ckJ9ybg7etyfyaDhxbhr-3" target="ckJ9ybg7etyfyaDhxbhr-4" edge="1">
          <mxGeometry relative="1" as="geometry" />
        </mxCell>
        <mxCell id="ckJ9ybg7etyfyaDhxbhr-3" value="Put the baby on the changing mat" style="rounded=1;whiteSpace=wrap;html=1;" parent="ckJ9ybg7etyfyaDhxbhr-1" vertex="1">
          <mxGeometry x="30" y="70" width="120" height="60" as="geometry" />
        </mxCell>
        <mxCell id="ckJ9ybg7etyfyaDhxbhr-7" value="" style="edgeStyle=orthogonalEdgeStyle;rounded=0;orthogonalLoop=1;jettySize=auto;html=1;" parent="ckJ9ybg7etyfyaDhxbhr-1" source="ckJ9ybg7etyfyaDhxbhr-4" target="ckJ9ybg7etyfyaDhxbhr-6" edge="1">
          <mxGeometry relative="1" as="geometry" />
        </mxCell>
        <mxCell id="ckJ9ybg7etyfyaDhxbhr-4" value="Smell the butt of the baby" style="whiteSpace=wrap;html=1;rounded=1;" parent="ckJ9ybg7etyfyaDhxbhr-1" vertex="1">
          <mxGeometry x="180" y="70" width="120" height="60" as="geometry" />
        </mxCell>
        <mxCell id="ckJ9ybg7etyfyaDhxbhr-9" value="" style="edgeStyle=orthogonalEdgeStyle;rounded=0;orthogonalLoop=1;jettySize=auto;html=1;" parent="ckJ9ybg7etyfyaDhxbhr-1" source="ckJ9ybg7etyfyaDhxbhr-6" target="ckJ9ybg7etyfyaDhxbhr-8" edge="1">
          <mxGeometry relative="1" as="geometry" />
        </mxCell>
        <mxCell id="ckJ9ybg7etyfyaDhxbhr-11" value="" style="edgeStyle=orthogonalEdgeStyle;rounded=0;orthogonalLoop=1;jettySize=auto;html=1;" parent="ckJ9ybg7etyfyaDhxbhr-1" edge="1">
          <mxGeometry relative="1" as="geometry">
            <mxPoint x="396" y="135.5" as="sourcePoint" />
            <mxPoint x="396" y="170" as="targetPoint" />
            <Array as="points">
              <mxPoint x="396" y="160" />
              <mxPoint x="396" y="160" />
            </Array>
          </mxGeometry>
        </mxCell>
        <mxCell id="ckJ9ybg7etyfyaDhxbhr-6" value="Smell bad?" style="rhombus;whiteSpace=wrap;html=1;rounded=1;" parent="ckJ9ybg7etyfyaDhxbhr-1" vertex="1">
          <mxGeometry x="355.5" y="60" width="80" height="80" as="geometry" />
        </mxCell>
        <mxCell id="j5P8e1at3w1l11TAYd_l-19" value="" style="edgeStyle=orthogonalEdgeStyle;rounded=0;orthogonalLoop=1;jettySize=auto;html=1;shadow=1;" parent="ckJ9ybg7etyfyaDhxbhr-1" source="ckJ9ybg7etyfyaDhxbhr-8" target="j5P8e1at3w1l11TAYd_l-18" edge="1">
          <mxGeometry relative="1" as="geometry" />
        </mxCell>
        <mxCell id="ckJ9ybg7etyfyaDhxbhr-8" value="Call the mom" style="whiteSpace=wrap;html=1;rounded=1;" parent="ckJ9ybg7etyfyaDhxbhr-1" vertex="1">
          <mxGeometry x="570" y="70" width="90" height="60" as="geometry" />
        </mxCell>
        <mxCell id="ckJ9ybg7etyfyaDhxbhr-12" value="Yes" style="text;html=1;align=center;verticalAlign=middle;resizable=0;points=[];autosize=1;" parent="ckJ9ybg7etyfyaDhxbhr-1" vertex="1">
          <mxGeometry x="435" y="80" width="40" height="20" as="geometry" />
        </mxCell>
        <mxCell id="ckJ9ybg7etyfyaDhxbhr-13" value="No" style="text;html=1;align=center;verticalAlign=middle;resizable=0;points=[];autosize=1;" parent="ckJ9ybg7etyfyaDhxbhr-1" vertex="1">
          <mxGeometry x="399" y="140" width="30" height="20" as="geometry" />
        </mxCell>
        <mxCell id="ckJ9ybg7etyfyaDhxbhr-14" value="" style="endArrow=none;html=1;shadow=1;" parent="ckJ9ybg7etyfyaDhxbhr-1" edge="1">
          <mxGeometry width="50" height="50" relative="1" as="geometry">
            <mxPoint x="270" y="170" as="sourcePoint" />
            <mxPoint x="530" y="170" as="targetPoint" />
            <Array as="points">
              <mxPoint x="390" y="170" />
            </Array>
          </mxGeometry>
        </mxCell>
        <mxCell id="j5P8e1at3w1l11TAYd_l-2" value="" style="edgeStyle=orthogonalEdgeStyle;rounded=0;orthogonalLoop=1;jettySize=auto;html=1;" parent="ckJ9ybg7etyfyaDhxbhr-1" edge="1">
          <mxGeometry relative="1" as="geometry">
            <mxPoint x="290" y="170" as="sourcePoint" />
            <mxPoint x="290" y="210" as="targetPoint" />
          </mxGeometry>
        </mxCell>
        <mxCell id="j5P8e1at3w1l11TAYd_l-7" style="edgeStyle=orthogonalEdgeStyle;rounded=0;orthogonalLoop=1;jettySize=auto;html=1;shadow=1;" parent="ckJ9ybg7etyfyaDhxbhr-1" source="j5P8e1at3w1l11TAYd_l-4" edge="1">
          <mxGeometry relative="1" as="geometry">
            <mxPoint x="295" y="310" as="targetPoint" />
          </mxGeometry>
        </mxCell>
        <mxCell id="j5P8e1at3w1l11TAYd_l-4" value="Open the diaper" style="whiteSpace=wrap;html=1;rounded=1;" parent="ckJ9ybg7etyfyaDhxbhr-1" vertex="1">
          <mxGeometry x="230" y="210" width="130" height="60" as="geometry" />
        </mxCell>
        <mxCell id="j5P8e1at3w1l11TAYd_l-8" style="edgeStyle=orthogonalEdgeStyle;rounded=0;orthogonalLoop=1;jettySize=auto;html=1;shadow=1;" parent="ckJ9ybg7etyfyaDhxbhr-1" source="j5P8e1at3w1l11TAYd_l-6" edge="1">
          <mxGeometry relative="1" as="geometry">
            <mxPoint x="525" y="310" as="targetPoint" />
          </mxGeometry>
        </mxCell>
        <mxCell id="j5P8e1at3w1l11TAYd_l-6" value="Make funny faces and sounds to keep the baby still.&amp;nbsp;" style="whiteSpace=wrap;html=1;rounded=1;" parent="ckJ9ybg7etyfyaDhxbhr-1" vertex="1">
          <mxGeometry x="460" y="210" width="130" height="60" as="geometry" />
        </mxCell>
        <mxCell id="j5P8e1at3w1l11TAYd_l-9" value="" style="endArrow=none;html=1;shadow=1;" parent="ckJ9ybg7etyfyaDhxbhr-1" edge="1">
          <mxGeometry width="50" height="50" relative="1" as="geometry">
            <mxPoint x="284" y="310" as="sourcePoint" />
            <mxPoint x="544" y="310" as="targetPoint" />
            <Array as="points">
              <mxPoint x="404" y="310" />
            </Array>
          </mxGeometry>
        </mxCell>
        <mxCell id="j5P8e1at3w1l11TAYd_l-10" value="" style="edgeStyle=orthogonalEdgeStyle;rounded=0;orthogonalLoop=1;jettySize=auto;html=1;" parent="ckJ9ybg7etyfyaDhxbhr-1" edge="1">
          <mxGeometry relative="1" as="geometry">
            <mxPoint x="400" y="310" as="sourcePoint" />
            <mxPoint x="395" y="340" as="targetPoint" />
            <Array as="points">
              <mxPoint x="395" y="310" />
            </Array>
          </mxGeometry>
        </mxCell>
        <mxCell id="j5P8e1at3w1l11TAYd_l-16" style="edgeStyle=orthogonalEdgeStyle;rounded=0;orthogonalLoop=1;jettySize=auto;html=1;shadow=1;entryX=0.389;entryY=1.067;entryDx=0;entryDy=0;entryPerimeter=0;exitX=1;exitY=0.5;exitDx=0;exitDy=0;" parent="ckJ9ybg7etyfyaDhxbhr-1" source="j5P8e1at3w1l11TAYd_l-12" target="ckJ9ybg7etyfyaDhxbhr-8" edge="1">
          <mxGeometry relative="1" as="geometry">
            <mxPoint x="605" y="160" as="targetPoint" />
            <mxPoint x="446.17391304347825" y="404" as="sourcePoint" />
            <Array as="points">
              <mxPoint x="446" y="436" />
              <mxPoint x="446" y="440" />
              <mxPoint x="605" y="440" />
            </Array>
          </mxGeometry>
        </mxCell>
        <mxCell id="j5P8e1at3w1l11TAYd_l-21" style="edgeStyle=orthogonalEdgeStyle;rounded=0;orthogonalLoop=1;jettySize=auto;html=1;shadow=1;" parent="ckJ9ybg7etyfyaDhxbhr-1" source="j5P8e1at3w1l11TAYd_l-12" target="j5P8e1at3w1l11TAYd_l-22" edge="1">
          <mxGeometry relative="1" as="geometry">
            <mxPoint x="399.25" y="512" as="targetPoint" />
          </mxGeometry>
        </mxCell>
        <mxCell id="j5P8e1at3w1l11TAYd_l-12" value="Is there a poop?" style="rhombus;whiteSpace=wrap;html=1;rounded=1;" parent="ckJ9ybg7etyfyaDhxbhr-1" vertex="1">
          <mxGeometry x="341.5" y="390" width="108.5" height="92" as="geometry" />
        </mxCell>
        <mxCell id="j5P8e1at3w1l11TAYd_l-15" value="" style="edgeStyle=orthogonalEdgeStyle;rounded=0;orthogonalLoop=1;jettySize=auto;html=1;" parent="ckJ9ybg7etyfyaDhxbhr-1" edge="1">
          <mxGeometry relative="1" as="geometry">
            <mxPoint x="520" y="173" as="sourcePoint" />
            <mxPoint x="520" y="210" as="targetPoint" />
            <Array as="points">
              <mxPoint x="520" y="173" />
              <mxPoint x="520" y="213" />
            </Array>
          </mxGeometry>
        </mxCell>
        <mxCell id="j5P8e1at3w1l11TAYd_l-17" value="Yes" style="text;html=1;align=center;verticalAlign=middle;resizable=0;points=[];autosize=1;" parent="ckJ9ybg7etyfyaDhxbhr-1" vertex="1">
          <mxGeometry x="450" y="412" width="40" height="20" as="geometry" />
        </mxCell>
        <mxCell id="j5P8e1at3w1l11TAYd_l-18" value="Get away from the room" style="whiteSpace=wrap;html=1;rounded=1;" parent="ckJ9ybg7etyfyaDhxbhr-1" vertex="1">
          <mxGeometry x="700" y="70" width="90" height="60" as="geometry" />
        </mxCell>
        <mxCell id="j5P8e1at3w1l11TAYd_l-31" value="" style="edgeStyle=orthogonalEdgeStyle;rounded=0;orthogonalLoop=1;jettySize=auto;html=1;shadow=1;" parent="ckJ9ybg7etyfyaDhxbhr-1" source="j5P8e1at3w1l11TAYd_l-22" target="j5P8e1at3w1l11TAYd_l-30" edge="1">
          <mxGeometry relative="1" as="geometry" />
        </mxCell>
        <mxCell id="j5P8e1at3w1l11TAYd_l-22" value="Put the new diaper under the baby" style="rounded=1;whiteSpace=wrap;html=1;" parent="ckJ9ybg7etyfyaDhxbhr-1" vertex="1">
          <mxGeometry x="335.75" y="525" width="120" height="60" as="geometry" />
        </mxCell>
        <mxCell id="j5P8e1at3w1l11TAYd_l-23" value="No" style="text;html=1;align=center;verticalAlign=middle;resizable=0;points=[];autosize=1;" parent="ckJ9ybg7etyfyaDhxbhr-1" vertex="1">
          <mxGeometry x="399" y="482" width="30" height="20" as="geometry" />
        </mxCell>
        <mxCell id="j5P8e1at3w1l11TAYd_l-33" value="" style="edgeStyle=orthogonalEdgeStyle;rounded=0;orthogonalLoop=1;jettySize=auto;html=1;shadow=1;" parent="ckJ9ybg7etyfyaDhxbhr-1" source="j5P8e1at3w1l11TAYd_l-30" target="j5P8e1at3w1l11TAYd_l-32" edge="1">
          <mxGeometry relative="1" as="geometry" />
        </mxCell>
        <mxCell id="j5P8e1at3w1l11TAYd_l-30" value="&lt;span&gt;apply some diaper rash cream&lt;/span&gt;" style="whiteSpace=wrap;html=1;rounded=1;" parent="ckJ9ybg7etyfyaDhxbhr-1" vertex="1">
          <mxGeometry x="336.25" y="612" width="120" height="60" as="geometry" />
        </mxCell>
        <mxCell id="j5P8e1at3w1l11TAYd_l-36" value="" style="edgeStyle=orthogonalEdgeStyle;rounded=0;orthogonalLoop=1;jettySize=auto;html=1;shadow=1;" parent="ckJ9ybg7etyfyaDhxbhr-1" source="j5P8e1at3w1l11TAYd_l-32" target="j5P8e1at3w1l11TAYd_l-35" edge="1">
          <mxGeometry relative="1" as="geometry" />
        </mxCell>
        <mxCell id="j5P8e1at3w1l11TAYd_l-49" style="edgeStyle=orthogonalEdgeStyle;rounded=0;orthogonalLoop=1;jettySize=auto;html=1;entryX=0;entryY=0.5;entryDx=0;entryDy=0;shadow=1;" parent="ckJ9ybg7etyfyaDhxbhr-1" source="j5P8e1at3w1l11TAYd_l-32" target="j5P8e1at3w1l11TAYd_l-30" edge="1">
          <mxGeometry relative="1" as="geometry">
            <Array as="points">
              <mxPoint x="316" y="742" />
              <mxPoint x="316" y="642" />
            </Array>
          </mxGeometry>
        </mxCell>
        <mxCell id="j5P8e1at3w1l11TAYd_l-32" value="Does the cream looks enough?" style="rhombus;whiteSpace=wrap;html=1;rounded=1;" parent="ckJ9ybg7etyfyaDhxbhr-1" vertex="1">
          <mxGeometry x="341.25" y="692" width="110" height="100" as="geometry" />
        </mxCell>
        <mxCell id="j5P8e1at3w1l11TAYd_l-39" style="edgeStyle=orthogonalEdgeStyle;rounded=0;orthogonalLoop=1;jettySize=auto;html=1;shadow=1;entryX=0.656;entryY=1.033;entryDx=0;entryDy=0;entryPerimeter=0;" parent="ckJ9ybg7etyfyaDhxbhr-1" source="j5P8e1at3w1l11TAYd_l-35" target="ckJ9ybg7etyfyaDhxbhr-8" edge="1">
          <mxGeometry relative="1" as="geometry">
            <mxPoint x="640" y="240" as="targetPoint" />
            <Array as="points">
              <mxPoint x="629" y="742" />
            </Array>
          </mxGeometry>
        </mxCell>
        <mxCell id="j5P8e1at3w1l11TAYd_l-35" value="Close the diaper" style="whiteSpace=wrap;html=1;rounded=1;" parent="ckJ9ybg7etyfyaDhxbhr-1" vertex="1">
          <mxGeometry x="505" y="712" width="79.25" height="60" as="geometry" />
        </mxCell>
        <mxCell id="j5P8e1at3w1l11TAYd_l-37" value="No" style="text;html=1;align=center;verticalAlign=middle;resizable=0;points=[];autosize=1;" parent="ckJ9ybg7etyfyaDhxbhr-1" vertex="1">
          <mxGeometry x="290" y="672" width="30" height="20" as="geometry" />
        </mxCell>
        <mxCell id="j5P8e1at3w1l11TAYd_l-38" value="Yes" style="text;html=1;align=center;verticalAlign=middle;resizable=0;points=[];autosize=1;" parent="ckJ9ybg7etyfyaDhxbhr-1" vertex="1">
          <mxGeometry x="454.25" y="722" width="40" height="20" as="geometry" />
        </mxCell>
        <mxCell id="j5P8e1at3w1l11TAYd_l-47" value="" style="edgeStyle=orthogonalEdgeStyle;rounded=0;orthogonalLoop=1;jettySize=auto;html=1;shadow=1;" parent="ckJ9ybg7etyfyaDhxbhr-1" source="j5P8e1at3w1l11TAYd_l-46" target="j5P8e1at3w1l11TAYd_l-12" edge="1">
          <mxGeometry relative="1" as="geometry" />
        </mxCell>
        <mxCell id="j5P8e1at3w1l11TAYd_l-46" value="Check for the poop" style="whiteSpace=wrap;html=1;rounded=1;" parent="ckJ9ybg7etyfyaDhxbhr-1" vertex="1">
          <mxGeometry x="330.5" y="330" width="130" height="30" as="geometry" />
        </mxCell>
      </root>
    </mxGraphModel>
  </diagram>
  <diagram id="-ODSPZW0X0TB8SAfwc3E" name="Page-5">
    <mxGraphModel dx="1186" dy="646" grid="1" gridSize="10" guides="1" tooltips="1" connect="1" arrows="1" fold="1" page="1" pageScale="1" pageWidth="827" pageHeight="1169" math="0" shadow="0">
      <root>
        <mxCell id="bLMXLw1mkQ4U77lT0LIt-0" />
        <mxCell id="bLMXLw1mkQ4U77lT0LIt-1" parent="bLMXLw1mkQ4U77lT0LIt-0" />
        <mxCell id="bLMXLw1mkQ4U77lT0LIt-4" value="" style="edgeStyle=orthogonalEdgeStyle;rounded=0;orthogonalLoop=1;jettySize=auto;html=1;" edge="1" parent="bLMXLw1mkQ4U77lT0LIt-1" source="bLMXLw1mkQ4U77lT0LIt-2" target="bLMXLw1mkQ4U77lT0LIt-3">
          <mxGeometry relative="1" as="geometry" />
        </mxCell>
        <mxCell id="bLMXLw1mkQ4U77lT0LIt-2" value="To start type &quot;S&quot;" style="rounded=1;whiteSpace=wrap;html=1;" vertex="1" parent="bLMXLw1mkQ4U77lT0LIt-1">
          <mxGeometry x="30" y="240" width="120" height="60" as="geometry" />
        </mxCell>
        <mxCell id="bLMXLw1mkQ4U77lT0LIt-5" style="edgeStyle=orthogonalEdgeStyle;rounded=0;orthogonalLoop=1;jettySize=auto;html=1;entryX=0.5;entryY=0;entryDx=0;entryDy=0;" edge="1" parent="bLMXLw1mkQ4U77lT0LIt-1" source="bLMXLw1mkQ4U77lT0LIt-3" target="bLMXLw1mkQ4U77lT0LIt-2">
          <mxGeometry relative="1" as="geometry">
            <Array as="points">
              <mxPoint x="290" y="220" />
              <mxPoint x="90" y="220" />
            </Array>
          </mxGeometry>
        </mxCell>
        <mxCell id="bLMXLw1mkQ4U77lT0LIt-6" style="edgeStyle=orthogonalEdgeStyle;rounded=0;orthogonalLoop=1;jettySize=auto;html=1;exitX=1;exitY=0.5;exitDx=0;exitDy=0;" edge="1" parent="bLMXLw1mkQ4U77lT0LIt-1" source="bLMXLw1mkQ4U77lT0LIt-3">
          <mxGeometry relative="1" as="geometry">
            <mxPoint x="390" y="270" as="targetPoint" />
          </mxGeometry>
        </mxCell>
        <mxCell id="bLMXLw1mkQ4U77lT0LIt-3" value="entry =&#39;S&#39;?" style="rhombus;whiteSpace=wrap;html=1;rounded=1;" vertex="1" parent="bLMXLw1mkQ4U77lT0LIt-1">
          <mxGeometry x="250" y="230" width="80" height="80" as="geometry" />
        </mxCell>
        <mxCell id="bLMXLw1mkQ4U77lT0LIt-7" value="No" style="text;html=1;align=center;verticalAlign=middle;resizable=0;points=[];autosize=1;" vertex="1" parent="bLMXLw1mkQ4U77lT0LIt-1">
          <mxGeometry x="290" y="220" width="30" height="20" as="geometry" />
        </mxCell>
        <mxCell id="bLMXLw1mkQ4U77lT0LIt-8" value="Yes" style="text;html=1;align=center;verticalAlign=middle;resizable=0;points=[];autosize=1;" vertex="1" parent="bLMXLw1mkQ4U77lT0LIt-1">
          <mxGeometry x="320" y="250" width="40" height="20" as="geometry" />
        </mxCell>
        <mxCell id="bLMXLw1mkQ4U77lT0LIt-11" value="" style="edgeStyle=orthogonalEdgeStyle;rounded=0;orthogonalLoop=1;jettySize=auto;html=1;" edge="1" parent="bLMXLw1mkQ4U77lT0LIt-1" source="bLMXLw1mkQ4U77lT0LIt-9" target="bLMXLw1mkQ4U77lT0LIt-10">
          <mxGeometry relative="1" as="geometry" />
        </mxCell>
        <mxCell id="bLMXLw1mkQ4U77lT0LIt-9" value="You have entered the&lt;b&gt; Maze of Eternity!&lt;/b&gt;&lt;br&gt;&lt;br&gt;&lt;i&gt;&quot;If you wanna leave this world behind,&lt;br&gt;You better use the power of your mind!&quot;&lt;br&gt;&lt;br&gt;&lt;/i&gt;You walked in the maze.&amp;nbsp;&lt;i&gt;&lt;br&gt;&lt;/i&gt;" style="rounded=1;whiteSpace=wrap;html=1;" vertex="1" parent="bLMXLw1mkQ4U77lT0LIt-1">
          <mxGeometry x="390" y="220" width="220" height="100" as="geometry" />
        </mxCell>
        <mxCell id="bLMXLw1mkQ4U77lT0LIt-13" value="" style="edgeStyle=orthogonalEdgeStyle;rounded=0;orthogonalLoop=1;jettySize=auto;html=1;" edge="1" parent="bLMXLw1mkQ4U77lT0LIt-1" source="bLMXLw1mkQ4U77lT0LIt-10" target="bLMXLw1mkQ4U77lT0LIt-12">
          <mxGeometry relative="1" as="geometry" />
        </mxCell>
        <mxCell id="bLMXLw1mkQ4U77lT0LIt-10" value="There seems two options in front of you to choose :&amp;nbsp;&lt;br&gt;(L) Left or (R) Right" style="whiteSpace=wrap;html=1;rounded=1;" vertex="1" parent="bLMXLw1mkQ4U77lT0LIt-1">
          <mxGeometry x="440" y="400" width="120" height="70" as="geometry" />
        </mxCell>
        <mxCell id="bLMXLw1mkQ4U77lT0LIt-14" style="edgeStyle=orthogonalEdgeStyle;rounded=0;orthogonalLoop=1;jettySize=auto;html=1;entryX=0.5;entryY=1;entryDx=0;entryDy=0;" edge="1" parent="bLMXLw1mkQ4U77lT0LIt-1" source="bLMXLw1mkQ4U77lT0LIt-12" target="bLMXLw1mkQ4U77lT0LIt-15">
          <mxGeometry relative="1" as="geometry">
            <mxPoint x="360" y="490" as="targetPoint" />
          </mxGeometry>
        </mxCell>
        <mxCell id="bLMXLw1mkQ4U77lT0LIt-20" value="" style="edgeStyle=orthogonalEdgeStyle;rounded=0;orthogonalLoop=1;jettySize=auto;html=1;entryX=0.5;entryY=0;entryDx=0;entryDy=0;" edge="1" parent="bLMXLw1mkQ4U77lT0LIt-1" source="bLMXLw1mkQ4U77lT0LIt-12" target="bLMXLw1mkQ4U77lT0LIt-19">
          <mxGeometry relative="1" as="geometry">
            <Array as="points" />
          </mxGeometry>
        </mxCell>
        <mxCell id="bLMXLw1mkQ4U77lT0LIt-12" value="entry != &#39;L&#39; or &#39;R&#39;" style="rhombus;whiteSpace=wrap;html=1;rounded=1;" vertex="1" parent="bLMXLw1mkQ4U77lT0LIt-1">
          <mxGeometry x="450" y="510" width="100" height="95" as="geometry" />
        </mxCell>
        <mxCell id="bLMXLw1mkQ4U77lT0LIt-16" style="edgeStyle=orthogonalEdgeStyle;rounded=0;orthogonalLoop=1;jettySize=auto;html=1;entryX=0;entryY=0.5;entryDx=0;entryDy=0;" edge="1" parent="bLMXLw1mkQ4U77lT0LIt-1" source="bLMXLw1mkQ4U77lT0LIt-15" target="bLMXLw1mkQ4U77lT0LIt-10">
          <mxGeometry relative="1" as="geometry">
            <Array as="points">
              <mxPoint x="365" y="435" />
            </Array>
          </mxGeometry>
        </mxCell>
        <mxCell id="bLMXLw1mkQ4U77lT0LIt-15" value="Invalid Entry!&lt;br&gt;Pull yourself together and try again!" style="rounded=1;whiteSpace=wrap;html=1;" vertex="1" parent="bLMXLw1mkQ4U77lT0LIt-1">
          <mxGeometry x="320" y="460" width="90" height="60" as="geometry" />
        </mxCell>
        <mxCell id="bLMXLw1mkQ4U77lT0LIt-22" value="" style="edgeStyle=orthogonalEdgeStyle;rounded=0;orthogonalLoop=1;jettySize=auto;html=1;" edge="1" parent="bLMXLw1mkQ4U77lT0LIt-1" source="bLMXLw1mkQ4U77lT0LIt-19" target="bLMXLw1mkQ4U77lT0LIt-21">
          <mxGeometry relative="1" as="geometry" />
        </mxCell>
        <mxCell id="bLMXLw1mkQ4U77lT0LIt-24" value="" style="edgeStyle=orthogonalEdgeStyle;rounded=0;orthogonalLoop=1;jettySize=auto;html=1;" edge="1" parent="bLMXLw1mkQ4U77lT0LIt-1" source="bLMXLw1mkQ4U77lT0LIt-19" target="bLMXLw1mkQ4U77lT0LIt-23">
          <mxGeometry relative="1" as="geometry" />
        </mxCell>
        <mxCell id="bLMXLw1mkQ4U77lT0LIt-19" value="entry = &#39;L&#39; ?" style="rhombus;whiteSpace=wrap;html=1;rounded=1;" vertex="1" parent="bLMXLw1mkQ4U77lT0LIt-1">
          <mxGeometry x="450" y="620" width="100" height="95" as="geometry" />
        </mxCell>
        <mxCell id="bLMXLw1mkQ4U77lT0LIt-21" value="&quot;It is getting colder you see, &lt;br&gt;Is this the place you really wanna be?&quot;" style="whiteSpace=wrap;html=1;rounded=1;" vertex="1" parent="bLMXLw1mkQ4U77lT0LIt-1">
          <mxGeometry x="90" y="637.5" width="210" height="60" as="geometry" />
        </mxCell>
        <mxCell id="bLMXLw1mkQ4U77lT0LIt-31" value="" style="edgeStyle=orthogonalEdgeStyle;rounded=0;orthogonalLoop=1;jettySize=auto;html=1;" edge="1" parent="bLMXLw1mkQ4U77lT0LIt-1" source="bLMXLw1mkQ4U77lT0LIt-23" target="bLMXLw1mkQ4U77lT0LIt-30">
          <mxGeometry relative="1" as="geometry" />
        </mxCell>
        <mxCell id="bLMXLw1mkQ4U77lT0LIt-23" value="&lt;i&gt;&quot;The entrance stands right behind, &lt;br&gt;Go back and scream if you like&quot;&lt;/i&gt;&lt;br&gt;You go deeper into the maze now. You walk a little and take follow the corridor that turns left." style="whiteSpace=wrap;html=1;rounded=1;" vertex="1" parent="bLMXLw1mkQ4U77lT0LIt-1">
          <mxGeometry x="400" y="751" width="200" height="89" as="geometry" />
        </mxCell>
        <mxCell id="bLMXLw1mkQ4U77lT0LIt-25" value="Yes" style="text;html=1;align=center;verticalAlign=middle;resizable=0;points=[];autosize=1;" vertex="1" parent="bLMXLw1mkQ4U77lT0LIt-1">
          <mxGeometry x="400" y="650" width="40" height="20" as="geometry" />
        </mxCell>
        <mxCell id="bLMXLw1mkQ4U77lT0LIt-26" value="No" style="text;html=1;align=center;verticalAlign=middle;resizable=0;points=[];autosize=1;" vertex="1" parent="bLMXLw1mkQ4U77lT0LIt-1">
          <mxGeometry x="495" y="720" width="30" height="20" as="geometry" />
        </mxCell>
        <mxCell id="bLMXLw1mkQ4U77lT0LIt-27" value="No" style="text;html=1;align=center;verticalAlign=middle;resizable=0;points=[];autosize=1;" vertex="1" parent="bLMXLw1mkQ4U77lT0LIt-1">
          <mxGeometry x="405" y="540" width="30" height="20" as="geometry" />
        </mxCell>
        <mxCell id="bLMXLw1mkQ4U77lT0LIt-28" value="Yes" style="text;html=1;align=center;verticalAlign=middle;resizable=0;points=[];autosize=1;" vertex="1" parent="bLMXLw1mkQ4U77lT0LIt-1">
          <mxGeometry x="505" y="605" width="40" height="20" as="geometry" />
        </mxCell>
        <mxCell id="bLMXLw1mkQ4U77lT0LIt-33" value="" style="edgeStyle=orthogonalEdgeStyle;rounded=0;orthogonalLoop=1;jettySize=auto;html=1;entryX=0.5;entryY=0;entryDx=0;entryDy=0;" edge="1" parent="bLMXLw1mkQ4U77lT0LIt-1" source="bLMXLw1mkQ4U77lT0LIt-30" target="bLMXLw1mkQ4U77lT0LIt-39">
          <mxGeometry relative="1" as="geometry">
            <mxPoint x="500" y="960" as="targetPoint" />
          </mxGeometry>
        </mxCell>
        <mxCell id="bLMXLw1mkQ4U77lT0LIt-30" value="&amp;nbsp;Now you need to choose between (L) Left and (S) Straight" style="whiteSpace=wrap;html=1;rounded=1;" vertex="1" parent="bLMXLw1mkQ4U77lT0LIt-1">
          <mxGeometry x="435" y="870" width="130" height="60" as="geometry" />
        </mxCell>
        <mxCell id="bLMXLw1mkQ4U77lT0LIt-35" style="edgeStyle=orthogonalEdgeStyle;rounded=0;orthogonalLoop=1;jettySize=auto;html=1;entryX=0.5;entryY=1;entryDx=0;entryDy=0;exitX=0;exitY=0.5;exitDx=0;exitDy=0;" edge="1" parent="bLMXLw1mkQ4U77lT0LIt-1" target="bLMXLw1mkQ4U77lT0LIt-37" source="bLMXLw1mkQ4U77lT0LIt-39">
          <mxGeometry relative="1" as="geometry">
            <mxPoint x="354" y="955" as="targetPoint" />
            <mxPoint x="444" y="1022.5" as="sourcePoint" />
          </mxGeometry>
        </mxCell>
        <mxCell id="bLMXLw1mkQ4U77lT0LIt-36" style="edgeStyle=orthogonalEdgeStyle;rounded=0;orthogonalLoop=1;jettySize=auto;html=1;entryX=0;entryY=0.5;entryDx=0;entryDy=0;" edge="1" parent="bLMXLw1mkQ4U77lT0LIt-1" source="bLMXLw1mkQ4U77lT0LIt-37">
          <mxGeometry relative="1" as="geometry">
            <mxPoint x="434" y="900" as="targetPoint" />
            <Array as="points">
              <mxPoint x="359" y="900" />
            </Array>
          </mxGeometry>
        </mxCell>
        <mxCell id="bLMXLw1mkQ4U77lT0LIt-37" value="Invalid Entry!&lt;br&gt;You need to be more carefull! Try again!" style="rounded=1;whiteSpace=wrap;html=1;" vertex="1" parent="bLMXLw1mkQ4U77lT0LIt-1">
          <mxGeometry x="314" y="925" width="90" height="60" as="geometry" />
        </mxCell>
        <mxCell id="bLMXLw1mkQ4U77lT0LIt-38" value="Yes" style="text;html=1;align=center;verticalAlign=middle;resizable=0;points=[];autosize=1;" vertex="1" parent="bLMXLw1mkQ4U77lT0LIt-1">
          <mxGeometry x="394" y="1005" width="40" height="20" as="geometry" />
        </mxCell>
        <mxCell id="bLMXLw1mkQ4U77lT0LIt-39" value="entry != &#39;L&#39; or &#39;S&#39;" style="rhombus;whiteSpace=wrap;html=1;rounded=1;" vertex="1" parent="bLMXLw1mkQ4U77lT0LIt-1">
          <mxGeometry x="450" y="976" width="100" height="95" as="geometry" />
        </mxCell>
        <mxCell id="bLMXLw1mkQ4U77lT0LIt-40" value="" style="edgeStyle=orthogonalEdgeStyle;rounded=0;orthogonalLoop=1;jettySize=auto;html=1;entryX=0.5;entryY=0;entryDx=0;entryDy=0;" edge="1" parent="bLMXLw1mkQ4U77lT0LIt-1" target="bLMXLw1mkQ4U77lT0LIt-43">
          <mxGeometry relative="1" as="geometry">
            <mxPoint x="500" y="1070" as="sourcePoint" />
            <Array as="points" />
          </mxGeometry>
        </mxCell>
        <mxCell id="bLMXLw1mkQ4U77lT0LIt-41" value="" style="edgeStyle=orthogonalEdgeStyle;rounded=0;orthogonalLoop=1;jettySize=auto;html=1;" edge="1" parent="bLMXLw1mkQ4U77lT0LIt-1" source="bLMXLw1mkQ4U77lT0LIt-43">
          <mxGeometry relative="1" as="geometry">
            <mxPoint x="300" y="1132.5" as="targetPoint" />
          </mxGeometry>
        </mxCell>
        <mxCell id="bLMXLw1mkQ4U77lT0LIt-42" value="" style="edgeStyle=orthogonalEdgeStyle;rounded=0;orthogonalLoop=1;jettySize=auto;html=1;" edge="1" parent="bLMXLw1mkQ4U77lT0LIt-1" source="bLMXLw1mkQ4U77lT0LIt-43">
          <mxGeometry relative="1" as="geometry">
            <mxPoint x="500" y="1216" as="targetPoint" />
          </mxGeometry>
        </mxCell>
        <mxCell id="bLMXLw1mkQ4U77lT0LIt-43" value="entry = &#39;L&#39; ?" style="rhombus;whiteSpace=wrap;html=1;rounded=1;" vertex="1" parent="bLMXLw1mkQ4U77lT0LIt-1">
          <mxGeometry x="450" y="1085" width="100" height="95" as="geometry" />
        </mxCell>
        <mxCell id="bLMXLw1mkQ4U77lT0LIt-44" value="Yes" style="text;html=1;align=center;verticalAlign=middle;resizable=0;points=[];autosize=1;" vertex="1" parent="bLMXLw1mkQ4U77lT0LIt-1">
          <mxGeometry x="400" y="1115" width="40" height="20" as="geometry" />
        </mxCell>
        <mxCell id="bLMXLw1mkQ4U77lT0LIt-45" value="No" style="text;html=1;align=center;verticalAlign=middle;resizable=0;points=[];autosize=1;" vertex="1" parent="bLMXLw1mkQ4U77lT0LIt-1">
          <mxGeometry x="495" y="1185" width="30" height="20" as="geometry" />
        </mxCell>
        <mxCell id="bLMXLw1mkQ4U77lT0LIt-46" value="Yes" style="text;html=1;align=center;verticalAlign=middle;resizable=0;points=[];autosize=1;" vertex="1" parent="bLMXLw1mkQ4U77lT0LIt-1">
          <mxGeometry x="505" y="1070" width="40" height="20" as="geometry" />
        </mxCell>
        <mxCell id="bLMXLw1mkQ4U77lT0LIt-94" value="" style="endArrow=none;html=1;" edge="1" parent="bLMXLw1mkQ4U77lT0LIt-1">
          <mxGeometry width="50" height="50" relative="1" as="geometry">
            <mxPoint x="40" y="40" as="sourcePoint" />
            <mxPoint x="80" y="40" as="targetPoint" />
          </mxGeometry>
        </mxCell>
        <mxCell id="bLMXLw1mkQ4U77lT0LIt-95" value="" style="endArrow=none;html=1;" edge="1" parent="bLMXLw1mkQ4U77lT0LIt-1">
          <mxGeometry width="50" height="50" relative="1" as="geometry">
            <mxPoint x="100" y="40" as="sourcePoint" />
            <mxPoint x="140" y="40" as="targetPoint" />
          </mxGeometry>
        </mxCell>
        <mxCell id="bLMXLw1mkQ4U77lT0LIt-96" value="" style="endArrow=none;html=1;" edge="1" parent="bLMXLw1mkQ4U77lT0LIt-1">
          <mxGeometry width="50" height="50" relative="1" as="geometry">
            <mxPoint x="40" y="40" as="sourcePoint" />
            <mxPoint x="40" y="160" as="targetPoint" />
          </mxGeometry>
        </mxCell>
        <mxCell id="bLMXLw1mkQ4U77lT0LIt-97" value="" style="endArrow=none;html=1;" edge="1" parent="bLMXLw1mkQ4U77lT0LIt-1">
          <mxGeometry width="50" height="50" relative="1" as="geometry">
            <mxPoint x="140" y="40" as="sourcePoint" />
            <mxPoint x="140" y="140" as="targetPoint" />
          </mxGeometry>
        </mxCell>
        <mxCell id="bLMXLw1mkQ4U77lT0LIt-98" value="" style="endArrow=none;html=1;" edge="1" parent="bLMXLw1mkQ4U77lT0LIt-1">
          <mxGeometry width="50" height="50" relative="1" as="geometry">
            <mxPoint x="40" y="160" as="sourcePoint" />
            <mxPoint x="140" y="160" as="targetPoint" />
          </mxGeometry>
        </mxCell>
        <mxCell id="bLMXLw1mkQ4U77lT0LIt-112" value="" style="endArrow=none;html=1;" edge="1" parent="bLMXLw1mkQ4U77lT0LIt-1">
          <mxGeometry width="50" height="50" relative="1" as="geometry">
            <mxPoint x="60" y="60" as="sourcePoint" />
            <mxPoint x="100" y="60" as="targetPoint" />
          </mxGeometry>
        </mxCell>
        <mxCell id="bLMXLw1mkQ4U77lT0LIt-114" value="" style="endArrow=none;html=1;" edge="1" parent="bLMXLw1mkQ4U77lT0LIt-1">
          <mxGeometry width="50" height="50" relative="1" as="geometry">
            <mxPoint x="60" y="120" as="sourcePoint" />
            <mxPoint x="100" y="120" as="targetPoint" />
          </mxGeometry>
        </mxCell>
        <mxCell id="bLMXLw1mkQ4U77lT0LIt-115" value="" style="endArrow=none;html=1;" edge="1" parent="bLMXLw1mkQ4U77lT0LIt-1">
          <mxGeometry width="50" height="50" relative="1" as="geometry">
            <mxPoint x="100" y="60" as="sourcePoint" />
            <mxPoint x="100" y="120" as="targetPoint" />
          </mxGeometry>
        </mxCell>
        <mxCell id="bLMXLw1mkQ4U77lT0LIt-116" value="" style="endArrow=none;html=1;" edge="1" parent="bLMXLw1mkQ4U77lT0LIt-1">
          <mxGeometry width="50" height="50" relative="1" as="geometry">
            <mxPoint x="80" y="60" as="sourcePoint" />
            <mxPoint x="80" y="80" as="targetPoint" />
          </mxGeometry>
        </mxCell>
        <mxCell id="bLMXLw1mkQ4U77lT0LIt-117" value="" style="endArrow=none;html=1;" edge="1" parent="bLMXLw1mkQ4U77lT0LIt-1">
          <mxGeometry width="50" height="50" relative="1" as="geometry">
            <mxPoint x="60" y="80" as="sourcePoint" />
            <mxPoint x="80" y="80" as="targetPoint" />
          </mxGeometry>
        </mxCell>
        <mxCell id="bLMXLw1mkQ4U77lT0LIt-118" value="" style="endArrow=none;html=1;" edge="1" parent="bLMXLw1mkQ4U77lT0LIt-1">
          <mxGeometry width="50" height="50" relative="1" as="geometry">
            <mxPoint x="60" y="60" as="sourcePoint" />
            <mxPoint x="60" y="80" as="targetPoint" />
          </mxGeometry>
        </mxCell>
        <mxCell id="bLMXLw1mkQ4U77lT0LIt-119" value="" style="endArrow=none;html=1;" edge="1" parent="bLMXLw1mkQ4U77lT0LIt-1">
          <mxGeometry width="50" height="50" relative="1" as="geometry">
            <mxPoint x="60" y="140" as="sourcePoint" />
            <mxPoint x="80" y="140" as="targetPoint" />
          </mxGeometry>
        </mxCell>
        <mxCell id="bLMXLw1mkQ4U77lT0LIt-120" value="" style="endArrow=none;html=1;" edge="1" parent="bLMXLw1mkQ4U77lT0LIt-1">
          <mxGeometry width="50" height="50" relative="1" as="geometry">
            <mxPoint x="80" y="100" as="sourcePoint" />
            <mxPoint x="80" y="120" as="targetPoint" />
          </mxGeometry>
        </mxCell>
        <mxCell id="bLMXLw1mkQ4U77lT0LIt-121" value="" style="endArrow=none;html=1;" edge="1" parent="bLMXLw1mkQ4U77lT0LIt-1">
          <mxGeometry width="50" height="50" relative="1" as="geometry">
            <mxPoint x="60" y="100" as="sourcePoint" />
            <mxPoint x="80" y="100" as="targetPoint" />
          </mxGeometry>
        </mxCell>
        <mxCell id="bLMXLw1mkQ4U77lT0LIt-122" value="" style="endArrow=none;html=1;" edge="1" parent="bLMXLw1mkQ4U77lT0LIt-1">
          <mxGeometry width="50" height="50" relative="1" as="geometry">
            <mxPoint x="60" y="100" as="sourcePoint" />
            <mxPoint x="60" y="120" as="targetPoint" />
          </mxGeometry>
        </mxCell>
        <mxCell id="bLMXLw1mkQ4U77lT0LIt-123" value="" style="endArrow=none;html=1;" edge="1" parent="bLMXLw1mkQ4U77lT0LIt-1">
          <mxGeometry width="50" height="50" relative="1" as="geometry">
            <mxPoint x="100" y="120" as="sourcePoint" />
            <mxPoint x="100" y="140" as="targetPoint" />
          </mxGeometry>
        </mxCell>
        <mxCell id="bLMXLw1mkQ4U77lT0LIt-124" value="" style="endArrow=none;html=1;" edge="1" parent="bLMXLw1mkQ4U77lT0LIt-1">
          <mxGeometry width="50" height="50" relative="1" as="geometry">
            <mxPoint x="60" y="140" as="sourcePoint" />
            <mxPoint x="60" y="160" as="targetPoint" />
          </mxGeometry>
        </mxCell>
        <mxCell id="bLMXLw1mkQ4U77lT0LIt-125" value="" style="endArrow=none;html=1;" edge="1" parent="bLMXLw1mkQ4U77lT0LIt-1">
          <mxGeometry width="50" height="50" relative="1" as="geometry">
            <mxPoint x="100" y="140" as="sourcePoint" />
            <mxPoint x="140" y="140" as="targetPoint" />
          </mxGeometry>
        </mxCell>
        <mxCell id="bLMXLw1mkQ4U77lT0LIt-126" value="" style="endArrow=none;html=1;" edge="1" parent="bLMXLw1mkQ4U77lT0LIt-1">
          <mxGeometry width="50" height="50" relative="1" as="geometry">
            <mxPoint x="120" y="60" as="sourcePoint" />
            <mxPoint x="120" y="100" as="targetPoint" />
          </mxGeometry>
        </mxCell>
        <mxCell id="bLMXLw1mkQ4U77lT0LIt-127" value="" style="endArrow=none;html=1;" edge="1" parent="bLMXLw1mkQ4U77lT0LIt-1">
          <mxGeometry width="50" height="50" relative="1" as="geometry">
            <mxPoint x="120" y="60" as="sourcePoint" />
            <mxPoint x="140" y="60" as="targetPoint" />
          </mxGeometry>
        </mxCell>
        <mxCell id="bLMXLw1mkQ4U77lT0LIt-128" value="" style="endArrow=none;html=1;" edge="1" parent="bLMXLw1mkQ4U77lT0LIt-1">
          <mxGeometry width="50" height="50" relative="1" as="geometry">
            <mxPoint x="120" y="120" as="sourcePoint" />
            <mxPoint x="140" y="120" as="targetPoint" />
          </mxGeometry>
        </mxCell>
        <mxCell id="bLMXLw1mkQ4U77lT0LIt-129" value="" style="whiteSpace=wrap;html=1;aspect=fixed;fillColor=#000000;" vertex="1" parent="bLMXLw1mkQ4U77lT0LIt-1">
          <mxGeometry x="60" y="60" width="20" height="20" as="geometry" />
        </mxCell>
        <mxCell id="bLMXLw1mkQ4U77lT0LIt-130" value="" style="whiteSpace=wrap;html=1;aspect=fixed;fillColor=#000000;" vertex="1" parent="bLMXLw1mkQ4U77lT0LIt-1">
          <mxGeometry x="60" y="100" width="20" height="20" as="geometry" />
        </mxCell>
        <mxCell id="bLMXLw1mkQ4U77lT0LIt-131" value="" style="whiteSpace=wrap;html=1;aspect=fixed;fillColor=#000000;" vertex="1" parent="bLMXLw1mkQ4U77lT0LIt-1">
          <mxGeometry x="120" y="60" width="20" height="20" as="geometry" />
        </mxCell>
        <mxCell id="bLMXLw1mkQ4U77lT0LIt-132" value="" style="whiteSpace=wrap;html=1;aspect=fixed;fillColor=#000000;" vertex="1" parent="bLMXLw1mkQ4U77lT0LIt-1">
          <mxGeometry x="120" y="80" width="20" height="20" as="geometry" />
        </mxCell>
        <mxCell id="bLMXLw1mkQ4U77lT0LIt-133" value="" style="whiteSpace=wrap;html=1;aspect=fixed;fillColor=#000000;" vertex="1" parent="bLMXLw1mkQ4U77lT0LIt-1">
          <mxGeometry x="120" y="120" width="20" height="20" as="geometry" />
        </mxCell>
        <mxCell id="bLMXLw1mkQ4U77lT0LIt-134" value="" style="ellipse;whiteSpace=wrap;html=1;fillColor=#FF3333;" vertex="1" parent="bLMXLw1mkQ4U77lT0LIt-1">
          <mxGeometry x="85" y="40" width="10" height="10" as="geometry" />
        </mxCell>
        <mxCell id="bLMXLw1mkQ4U77lT0LIt-137" value="" style="ellipse;whiteSpace=wrap;html=1;fillColor=#FF3333;" vertex="1" parent="bLMXLw1mkQ4U77lT0LIt-1">
          <mxGeometry x="105" y="50" width="10" height="10" as="geometry" />
        </mxCell>
        <mxCell id="bLMXLw1mkQ4U77lT0LIt-138" value="" style="ellipse;whiteSpace=wrap;html=1;fillColor=#FF3333;" vertex="1" parent="bLMXLw1mkQ4U77lT0LIt-1">
          <mxGeometry x="44" y="85" width="10" height="10" as="geometry" />
        </mxCell>
        <mxCell id="bLMXLw1mkQ4U77lT0LIt-139" value="" style="ellipse;whiteSpace=wrap;html=1;fillColor=#FF3333;" vertex="1" parent="bLMXLw1mkQ4U77lT0LIt-1">
          <mxGeometry x="85" y="85" width="10" height="10" as="geometry" />
        </mxCell>
        <mxCell id="bLMXLw1mkQ4U77lT0LIt-140" value="" style="ellipse;whiteSpace=wrap;html=1;fillColor=#FF3333;" vertex="1" parent="bLMXLw1mkQ4U77lT0LIt-1">
          <mxGeometry x="44" y="125" width="10" height="10" as="geometry" />
        </mxCell>
        <mxCell id="bLMXLw1mkQ4U77lT0LIt-141" value="" style="ellipse;whiteSpace=wrap;html=1;fillColor=#FF3333;" vertex="1" parent="bLMXLw1mkQ4U77lT0LIt-1">
          <mxGeometry x="105" y="105" width="10" height="10" as="geometry" />
        </mxCell>
        <mxCell id="bLMXLw1mkQ4U77lT0LIt-142" value="" style="ellipse;whiteSpace=wrap;html=1;fillColor=#FF3333;" vertex="1" parent="bLMXLw1mkQ4U77lT0LIt-1">
          <mxGeometry x="85" y="143" width="10" height="10" as="geometry" />
        </mxCell>
        <mxCell id="bLMXLw1mkQ4U77lT0LIt-146" value="" style="endArrow=classic;html=1;" edge="1" parent="bLMXLw1mkQ4U77lT0LIt-1">
          <mxGeometry width="50" height="50" relative="1" as="geometry">
            <mxPoint x="54" y="129.86" as="sourcePoint" />
            <mxPoint x="64" y="129.86" as="targetPoint" />
          </mxGeometry>
        </mxCell>
        <mxCell id="bLMXLw1mkQ4U77lT0LIt-147" value="" style="endArrow=classic;html=1;" edge="1" parent="bLMXLw1mkQ4U77lT0LIt-1">
          <mxGeometry width="50" height="50" relative="1" as="geometry">
            <mxPoint x="54" y="89.86000000000007" as="sourcePoint" />
            <mxPoint x="64" y="89.86000000000007" as="targetPoint" />
          </mxGeometry>
        </mxCell>
        <mxCell id="bLMXLw1mkQ4U77lT0LIt-148" value="" style="endArrow=classic;html=1;" edge="1" parent="bLMXLw1mkQ4U77lT0LIt-1">
          <mxGeometry width="50" height="50" relative="1" as="geometry">
            <mxPoint x="95" y="147.86000000000007" as="sourcePoint" />
            <mxPoint x="105" y="147.86000000000007" as="targetPoint" />
          </mxGeometry>
        </mxCell>
        <mxCell id="bLMXLw1mkQ4U77lT0LIt-149" value="" style="endArrow=classic;html=1;" edge="1" parent="bLMXLw1mkQ4U77lT0LIt-1">
          <mxGeometry width="50" height="50" relative="1" as="geometry">
            <mxPoint x="115" y="109.86000000000007" as="sourcePoint" />
            <mxPoint x="125" y="109.86000000000007" as="targetPoint" />
          </mxGeometry>
        </mxCell>
        <mxCell id="bLMXLw1mkQ4U77lT0LIt-150" value="" style="endArrow=classic;html=1;" edge="1" parent="bLMXLw1mkQ4U77lT0LIt-1">
          <mxGeometry width="50" height="50" relative="1" as="geometry">
            <mxPoint x="115" y="54.86000000000007" as="sourcePoint" />
            <mxPoint x="125" y="54.86000000000007" as="targetPoint" />
          </mxGeometry>
        </mxCell>
        <mxCell id="bLMXLw1mkQ4U77lT0LIt-151" value="" style="endArrow=classic;html=1;" edge="1" parent="bLMXLw1mkQ4U77lT0LIt-1">
          <mxGeometry width="50" height="50" relative="1" as="geometry">
            <mxPoint x="95" y="44.86000000000007" as="sourcePoint" />
            <mxPoint x="105" y="44.86000000000007" as="targetPoint" />
          </mxGeometry>
        </mxCell>
        <mxCell id="bLMXLw1mkQ4U77lT0LIt-152" value="" style="endArrow=classic;html=1;" edge="1" parent="bLMXLw1mkQ4U77lT0LIt-1">
          <mxGeometry width="50" height="50" relative="1" as="geometry">
            <mxPoint x="85" y="44.860000000000014" as="sourcePoint" />
            <mxPoint x="75" y="44.860000000000014" as="targetPoint" />
          </mxGeometry>
        </mxCell>
        <mxCell id="bLMXLw1mkQ4U77lT0LIt-153" value="" style="endArrow=classic;html=1;" edge="1" parent="bLMXLw1mkQ4U77lT0LIt-1">
          <mxGeometry width="50" height="50" relative="1" as="geometry">
            <mxPoint x="85" y="147.86" as="sourcePoint" />
            <mxPoint x="75" y="147.86" as="targetPoint" />
          </mxGeometry>
        </mxCell>
        <mxCell id="bLMXLw1mkQ4U77lT0LIt-154" value="" style="endArrow=classic;html=1;" edge="1" parent="bLMXLw1mkQ4U77lT0LIt-1">
          <mxGeometry width="50" height="50" relative="1" as="geometry">
            <mxPoint x="109.86" y="60" as="sourcePoint" />
            <mxPoint x="109.86" y="70" as="targetPoint" />
          </mxGeometry>
        </mxCell>
        <mxCell id="bLMXLw1mkQ4U77lT0LIt-155" value="" style="endArrow=classic;html=1;" edge="1" parent="bLMXLw1mkQ4U77lT0LIt-1">
          <mxGeometry width="50" height="50" relative="1" as="geometry">
            <mxPoint x="109.86000000000001" y="115" as="sourcePoint" />
            <mxPoint x="109.86000000000001" y="125" as="targetPoint" />
          </mxGeometry>
        </mxCell>
        <mxCell id="bLMXLw1mkQ4U77lT0LIt-157" value="" style="endArrow=classic;html=1;" edge="1" parent="bLMXLw1mkQ4U77lT0LIt-1">
          <mxGeometry width="50" height="50" relative="1" as="geometry">
            <mxPoint x="89.72000000000001" y="95" as="sourcePoint" />
            <mxPoint x="89.72000000000001" y="105" as="targetPoint" />
          </mxGeometry>
        </mxCell>
        <mxCell id="bLMXLw1mkQ4U77lT0LIt-158" value="" style="endArrow=classic;html=1;" edge="1" parent="bLMXLw1mkQ4U77lT0LIt-1">
          <mxGeometry width="50" height="50" relative="1" as="geometry">
            <mxPoint x="48.860000000000014" y="135" as="sourcePoint" />
            <mxPoint x="48.860000000000014" y="145" as="targetPoint" />
          </mxGeometry>
        </mxCell>
        <mxCell id="bLMXLw1mkQ4U77lT0LIt-159" value="" style="endArrow=classic;html=1;" edge="1" parent="bLMXLw1mkQ4U77lT0LIt-1">
          <mxGeometry width="50" height="50" relative="1" as="geometry">
            <mxPoint x="48.860000000000014" y="95" as="sourcePoint" />
            <mxPoint x="48.860000000000014" y="105" as="targetPoint" />
          </mxGeometry>
        </mxCell>
        <mxCell id="bLMXLw1mkQ4U77lT0LIt-160" value="" style="endArrow=classic;html=1;" edge="1" parent="bLMXLw1mkQ4U77lT0LIt-1">
          <mxGeometry width="50" height="50" relative="1" as="geometry">
            <mxPoint x="90.00000000000001" y="85" as="sourcePoint" />
            <mxPoint x="90.14" y="75" as="targetPoint" />
          </mxGeometry>
        </mxCell>
        <mxCell id="bLMXLw1mkQ4U77lT0LIt-161" value="" style="shape=flexArrow;endArrow=classic;html=1;width=2.2222222222222223;endSize=1.797222222222222;endWidth=4.938271604938271;fillColor=#336600;" edge="1" parent="bLMXLw1mkQ4U77lT0LIt-1">
          <mxGeometry width="50" height="50" relative="1" as="geometry">
            <mxPoint x="140" y="150.86" as="sourcePoint" />
            <mxPoint x="150" y="150.86" as="targetPoint" />
          </mxGeometry>
        </mxCell>
        <mxCell id="bLMXLw1mkQ4U77lT0LIt-162" value="L&lt;br&gt;S&lt;br&gt;&lt;font color=&quot;#ff3333&quot;&gt;X&lt;/font&gt;" style="text;html=1;align=center;verticalAlign=middle;resizable=0;points=[];autosize=1;" vertex="1" parent="bLMXLw1mkQ4U77lT0LIt-1">
          <mxGeometry x="170" y="33" width="20" height="50" as="geometry" />
        </mxCell>
        <mxCell id="bLMXLw1mkQ4U77lT0LIt-163" value="L&lt;br&gt;R&lt;br&gt;R&lt;br&gt;&lt;span style=&quot;color: rgb(255 , 51 , 51)&quot;&gt;X&lt;/span&gt;" style="text;html=1;align=center;verticalAlign=middle;resizable=0;points=[];autosize=1;" vertex="1" parent="bLMXLw1mkQ4U77lT0LIt-1">
          <mxGeometry x="190" y="35" width="20" height="60" as="geometry" />
        </mxCell>
        <mxCell id="bLMXLw1mkQ4U77lT0LIt-164" value="L&lt;br&gt;R&lt;br&gt;S&lt;br&gt;&lt;span style=&quot;color: rgb(255 , 51 , 51)&quot;&gt;X&lt;/span&gt;" style="text;html=1;align=center;verticalAlign=middle;resizable=0;points=[];autosize=1;" vertex="1" parent="bLMXLw1mkQ4U77lT0LIt-1">
          <mxGeometry x="210" y="35" width="20" height="60" as="geometry" />
        </mxCell>
        <mxCell id="bLMXLw1mkQ4U77lT0LIt-165" value="R&lt;br&gt;L&lt;br&gt;L&lt;br&gt;&lt;span style=&quot;color: rgb(255 , 51 , 51)&quot;&gt;X&lt;/span&gt;" style="text;html=1;align=center;verticalAlign=middle;resizable=0;points=[];autosize=1;" vertex="1" parent="bLMXLw1mkQ4U77lT0LIt-1">
          <mxGeometry x="230" y="35" width="20" height="60" as="geometry" />
        </mxCell>
        <mxCell id="bLMXLw1mkQ4U77lT0LIt-166" value="R&lt;br&gt;L&lt;br&gt;R&lt;br&gt;&lt;span style=&quot;color: rgb(255 , 51 , 51)&quot;&gt;X&lt;/span&gt;" style="text;html=1;align=center;verticalAlign=middle;resizable=0;points=[];autosize=1;" vertex="1" parent="bLMXLw1mkQ4U77lT0LIt-1">
          <mxGeometry x="250" y="35" width="20" height="60" as="geometry" />
        </mxCell>
        <mxCell id="bLMXLw1mkQ4U77lT0LIt-167" value="R&lt;br&gt;S&lt;br&gt;S&lt;br&gt;&lt;span style=&quot;color: rgb(255 , 51 , 51)&quot;&gt;X&lt;/span&gt;" style="text;html=1;align=center;verticalAlign=middle;resizable=0;points=[];autosize=1;" vertex="1" parent="bLMXLw1mkQ4U77lT0LIt-1">
          <mxGeometry x="270" y="35" width="20" height="60" as="geometry" />
        </mxCell>
        <mxCell id="bLMXLw1mkQ4U77lT0LIt-168" value="R&lt;br&gt;S&lt;br&gt;L&lt;br&gt;R&lt;br&gt;&lt;span style=&quot;color: rgb(255 , 51 , 51)&quot;&gt;X&lt;/span&gt;" style="text;html=1;align=center;verticalAlign=middle;resizable=0;points=[];autosize=1;" vertex="1" parent="bLMXLw1mkQ4U77lT0LIt-1">
          <mxGeometry x="290" y="32" width="20" height="80" as="geometry" />
        </mxCell>
        <mxCell id="bLMXLw1mkQ4U77lT0LIt-169" value="R&lt;br&gt;S&lt;br&gt;L&lt;br&gt;L&lt;br&gt;&lt;font color=&quot;#4d9900&quot;&gt;:)&lt;/font&gt;" style="text;html=1;align=center;verticalAlign=middle;resizable=0;points=[];autosize=1;" vertex="1" parent="bLMXLw1mkQ4U77lT0LIt-1">
          <mxGeometry x="310" y="32" width="20" height="80" as="geometry" />
        </mxCell>
        <mxCell id="bLMXLw1mkQ4U77lT0LIt-170" value="R" style="text;html=1;align=center;verticalAlign=middle;resizable=0;points=[];autosize=1;" vertex="1" parent="bLMXLw1mkQ4U77lT0LIt-1">
          <mxGeometry x="580" y="40" width="20" height="20" as="geometry" />
        </mxCell>
        <mxCell id="bLMXLw1mkQ4U77lT0LIt-171" value="L" style="text;html=1;align=center;verticalAlign=middle;resizable=0;points=[];autosize=1;" vertex="1" parent="bLMXLw1mkQ4U77lT0LIt-1">
          <mxGeometry x="460" y="40" width="20" height="20" as="geometry" />
        </mxCell>
        <mxCell id="bLMXLw1mkQ4U77lT0LIt-172" value="S" style="text;html=1;align=center;verticalAlign=middle;resizable=0;points=[];autosize=1;" vertex="1" parent="bLMXLw1mkQ4U77lT0LIt-1">
          <mxGeometry x="515" y="12" width="20" height="20" as="geometry" />
        </mxCell>
        <mxCell id="bLMXLw1mkQ4U77lT0LIt-173" value="L" style="text;html=1;align=center;verticalAlign=middle;resizable=0;points=[];autosize=1;" vertex="1" parent="bLMXLw1mkQ4U77lT0LIt-1">
          <mxGeometry x="535" y="65" width="20" height="20" as="geometry" />
        </mxCell>
        <mxCell id="bLMXLw1mkQ4U77lT0LIt-174" value="S" style="text;html=1;align=center;verticalAlign=middle;resizable=0;points=[];autosize=1;" vertex="1" parent="bLMXLw1mkQ4U77lT0LIt-1">
          <mxGeometry x="621" y="65" width="20" height="20" as="geometry" />
        </mxCell>
        <mxCell id="bLMXLw1mkQ4U77lT0LIt-175" value="R" style="text;html=1;align=center;verticalAlign=middle;resizable=0;points=[];autosize=1;" vertex="1" parent="bLMXLw1mkQ4U77lT0LIt-1">
          <mxGeometry x="555" y="92" width="20" height="20" as="geometry" />
        </mxCell>
        <mxCell id="bLMXLw1mkQ4U77lT0LIt-177" value="L" style="text;html=1;align=center;verticalAlign=middle;resizable=0;points=[];autosize=1;" vertex="1" parent="bLMXLw1mkQ4U77lT0LIt-1">
          <mxGeometry x="515" y="92" width="20" height="20" as="geometry" />
        </mxCell>
        <mxCell id="bLMXLw1mkQ4U77lT0LIt-179" value="S" style="text;html=1;align=center;verticalAlign=middle;resizable=0;points=[];autosize=1;" vertex="1" parent="bLMXLw1mkQ4U77lT0LIt-1">
          <mxGeometry x="646" y="92" width="20" height="20" as="geometry" />
        </mxCell>
        <mxCell id="bLMXLw1mkQ4U77lT0LIt-180" value="L" style="text;html=1;align=center;verticalAlign=middle;resizable=0;points=[];autosize=1;" vertex="1" parent="bLMXLw1mkQ4U77lT0LIt-1">
          <mxGeometry x="600" y="92" width="20" height="20" as="geometry" />
        </mxCell>
        <mxCell id="bLMXLw1mkQ4U77lT0LIt-181" value="L" style="text;html=1;align=center;verticalAlign=middle;resizable=0;points=[];autosize=1;" vertex="1" parent="bLMXLw1mkQ4U77lT0LIt-1">
          <mxGeometry x="580" y="120" width="20" height="20" as="geometry" />
        </mxCell>
        <mxCell id="bLMXLw1mkQ4U77lT0LIt-182" value="R" style="text;html=1;align=center;verticalAlign=middle;resizable=0;points=[];autosize=1;" vertex="1" parent="bLMXLw1mkQ4U77lT0LIt-1">
          <mxGeometry x="620" y="120" width="20" height="20" as="geometry" />
        </mxCell>
        <mxCell id="bLMXLw1mkQ4U77lT0LIt-183" value="R" style="text;html=1;align=center;verticalAlign=middle;resizable=0;points=[];autosize=1;" vertex="1" parent="bLMXLw1mkQ4U77lT0LIt-1">
          <mxGeometry x="434" y="63" width="20" height="20" as="geometry" />
        </mxCell>
        <mxCell id="bLMXLw1mkQ4U77lT0LIt-184" value="S" style="text;html=1;align=center;verticalAlign=middle;resizable=0;points=[];autosize=1;" vertex="1" parent="bLMXLw1mkQ4U77lT0LIt-1">
          <mxGeometry x="481" y="65" width="20" height="20" as="geometry" />
        </mxCell>
        <mxCell id="bLMXLw1mkQ4U77lT0LIt-185" value="S" style="text;html=1;align=center;verticalAlign=middle;resizable=0;points=[];autosize=1;" vertex="1" parent="bLMXLw1mkQ4U77lT0LIt-1">
          <mxGeometry x="413.5" y="92" width="20" height="20" as="geometry" />
        </mxCell>
        <mxCell id="bLMXLw1mkQ4U77lT0LIt-186" value="L" style="text;html=1;align=center;verticalAlign=middle;resizable=0;points=[];autosize=1;" vertex="1" parent="bLMXLw1mkQ4U77lT0LIt-1">
          <mxGeometry x="451" y="92" width="20" height="20" as="geometry" />
        </mxCell>
        <mxCell id="bLMXLw1mkQ4U77lT0LIt-187" value="" style="endArrow=classic;html=1;fillColor=#336600;exitX=0.392;exitY=0.975;exitDx=0;exitDy=0;exitPerimeter=0;entryX=1.05;entryY=-0.019;entryDx=0;entryDy=0;entryPerimeter=0;" edge="1" parent="bLMXLw1mkQ4U77lT0LIt-1" source="bLMXLw1mkQ4U77lT0LIt-172" target="bLMXLw1mkQ4U77lT0LIt-171">
          <mxGeometry width="50" height="50" relative="1" as="geometry">
            <mxPoint x="400" y="190" as="sourcePoint" />
            <mxPoint x="450" y="140" as="targetPoint" />
          </mxGeometry>
        </mxCell>
        <mxCell id="bLMXLw1mkQ4U77lT0LIt-188" value="" style="endArrow=classic;html=1;fillColor=#336600;exitX=1.017;exitY=1.017;exitDx=0;exitDy=0;exitPerimeter=0;entryX=-0.047;entryY=0.008;entryDx=0;entryDy=0;entryPerimeter=0;" edge="1" parent="bLMXLw1mkQ4U77lT0LIt-1" source="bLMXLw1mkQ4U77lT0LIt-172" target="bLMXLw1mkQ4U77lT0LIt-170">
          <mxGeometry width="50" height="50" relative="1" as="geometry">
            <mxPoint x="532.8399999999999" y="39.5" as="sourcePoint" />
            <mxPoint x="490" y="56.120363361090085" as="targetPoint" />
          </mxGeometry>
        </mxCell>
        <mxCell id="bLMXLw1mkQ4U77lT0LIt-189" value="" style="endArrow=classic;html=1;fillColor=#336600;entryX=0.8;entryY=0.35;entryDx=0;entryDy=0;entryPerimeter=0;" edge="1" parent="bLMXLw1mkQ4U77lT0LIt-1" source="bLMXLw1mkQ4U77lT0LIt-171" target="bLMXLw1mkQ4U77lT0LIt-183">
          <mxGeometry width="50" height="50" relative="1" as="geometry">
            <mxPoint x="532.84" y="41.5" as="sourcePoint" />
            <mxPoint x="491" y="49.619999999999976" as="targetPoint" />
          </mxGeometry>
        </mxCell>
        <mxCell id="bLMXLw1mkQ4U77lT0LIt-191" value="" style="endArrow=classic;html=1;fillColor=#336600;entryX=0.8;entryY=0.35;entryDx=0;entryDy=0;entryPerimeter=0;" edge="1" parent="bLMXLw1mkQ4U77lT0LIt-1">
          <mxGeometry width="50" height="50" relative="1" as="geometry">
            <mxPoint x="440" y="85" as="sourcePoint" />
            <mxPoint x="430" y="95.00000000000003" as="targetPoint" />
          </mxGeometry>
        </mxCell>
        <mxCell id="bLMXLw1mkQ4U77lT0LIt-192" value="" style="endArrow=classic;html=1;fillColor=#336600;entryX=0.8;entryY=0.35;entryDx=0;entryDy=0;entryPerimeter=0;" edge="1" parent="bLMXLw1mkQ4U77lT0LIt-1">
          <mxGeometry width="50" height="50" relative="1" as="geometry">
            <mxPoint x="540" y="85" as="sourcePoint" />
            <mxPoint x="530" y="95.00000000000003" as="targetPoint" />
          </mxGeometry>
        </mxCell>
        <mxCell id="bLMXLw1mkQ4U77lT0LIt-193" value="" style="endArrow=classic;html=1;fillColor=#336600;entryX=0.8;entryY=0.35;entryDx=0;entryDy=0;entryPerimeter=0;" edge="1" parent="bLMXLw1mkQ4U77lT0LIt-1">
          <mxGeometry width="50" height="50" relative="1" as="geometry">
            <mxPoint x="606" y="112" as="sourcePoint" />
            <mxPoint x="596" y="122.00000000000003" as="targetPoint" />
          </mxGeometry>
        </mxCell>
        <mxCell id="bLMXLw1mkQ4U77lT0LIt-194" value="" style="endArrow=classic;html=1;fillColor=#336600;entryX=0.8;entryY=0.35;entryDx=0;entryDy=0;entryPerimeter=0;" edge="1" parent="bLMXLw1mkQ4U77lT0LIt-1">
          <mxGeometry width="50" height="50" relative="1" as="geometry">
            <mxPoint x="625" y="85" as="sourcePoint" />
            <mxPoint x="615" y="95.00000000000003" as="targetPoint" />
          </mxGeometry>
        </mxCell>
        <mxCell id="bLMXLw1mkQ4U77lT0LIt-195" value="" style="endArrow=classic;html=1;fillColor=#336600;entryX=0.75;entryY=0.25;entryDx=0;entryDy=0;entryPerimeter=0;" edge="1" parent="bLMXLw1mkQ4U77lT0LIt-1" target="bLMXLw1mkQ4U77lT0LIt-173">
          <mxGeometry width="50" height="50" relative="1" as="geometry">
            <mxPoint x="585" y="60" as="sourcePoint" />
            <mxPoint x="575" y="70.00000000000003" as="targetPoint" />
          </mxGeometry>
        </mxCell>
        <mxCell id="bLMXLw1mkQ4U77lT0LIt-196" value="" style="endArrow=classic;html=1;fillColor=#336600;exitX=0.675;exitY=0.953;exitDx=0;exitDy=0;exitPerimeter=0;" edge="1" parent="bLMXLw1mkQ4U77lT0LIt-1" source="bLMXLw1mkQ4U77lT0LIt-170">
          <mxGeometry width="50" height="50" relative="1" as="geometry">
            <mxPoint x="590" y="70" as="sourcePoint" />
            <mxPoint x="630" y="70" as="targetPoint" />
          </mxGeometry>
        </mxCell>
        <mxCell id="bLMXLw1mkQ4U77lT0LIt-197" value="" style="endArrow=classic;html=1;fillColor=#336600;entryX=0.425;entryY=0.019;entryDx=0;entryDy=0;entryPerimeter=0;exitX=0.814;exitY=0.981;exitDx=0;exitDy=0;exitPerimeter=0;" edge="1" parent="bLMXLw1mkQ4U77lT0LIt-1" source="bLMXLw1mkQ4U77lT0LIt-173" target="bLMXLw1mkQ4U77lT0LIt-175">
          <mxGeometry width="50" height="50" relative="1" as="geometry">
            <mxPoint x="550" y="95" as="sourcePoint" />
            <mxPoint x="540" y="105" as="targetPoint" />
          </mxGeometry>
        </mxCell>
        <mxCell id="bLMXLw1mkQ4U77lT0LIt-201" value="" style="endArrow=classic;html=1;fillColor=#336600;entryX=0.425;entryY=0.019;entryDx=0;entryDy=0;entryPerimeter=0;exitX=0.814;exitY=0.981;exitDx=0;exitDy=0;exitPerimeter=0;" edge="1" parent="bLMXLw1mkQ4U77lT0LIt-1">
          <mxGeometry width="50" height="50" relative="1" as="geometry">
            <mxPoint x="639.0000000000001" y="85.11999999999995" as="sourcePoint" />
            <mxPoint x="651.22" y="92.88" as="targetPoint" />
          </mxGeometry>
        </mxCell>
        <mxCell id="bLMXLw1mkQ4U77lT0LIt-202" value="" style="endArrow=classic;html=1;fillColor=#336600;entryX=0.425;entryY=0.019;entryDx=0;entryDy=0;entryPerimeter=0;exitX=0.814;exitY=0.981;exitDx=0;exitDy=0;exitPerimeter=0;" edge="1" parent="bLMXLw1mkQ4U77lT0LIt-1">
          <mxGeometry width="50" height="50" relative="1" as="geometry">
            <mxPoint x="616.0000000000001" y="112.99999999999994" as="sourcePoint" />
            <mxPoint x="628.22" y="120.75999999999999" as="targetPoint" />
          </mxGeometry>
        </mxCell>
        <mxCell id="bLMXLw1mkQ4U77lT0LIt-203" value="" style="endArrow=classic;html=1;fillColor=#336600;exitX=0.814;exitY=0.981;exitDx=0;exitDy=0;exitPerimeter=0;" edge="1" parent="bLMXLw1mkQ4U77lT0LIt-1">
          <mxGeometry width="50" height="50" relative="1" as="geometry">
            <mxPoint x="448.7800000000001" y="85.11999999999995" as="sourcePoint" />
            <mxPoint x="458" y="94" as="targetPoint" />
          </mxGeometry>
        </mxCell>
        <mxCell id="bLMXLw1mkQ4U77lT0LIt-204" value="" style="endArrow=classic;html=1;fillColor=#336600;entryX=0.425;entryY=0.019;entryDx=0;entryDy=0;entryPerimeter=0;exitX=0.814;exitY=0.981;exitDx=0;exitDy=0;exitPerimeter=0;" edge="1" parent="bLMXLw1mkQ4U77lT0LIt-1">
          <mxGeometry width="50" height="50" relative="1" as="geometry">
            <mxPoint x="477.0000000000001" y="59.99999999999994" as="sourcePoint" />
            <mxPoint x="489.22" y="67.75999999999999" as="targetPoint" />
          </mxGeometry>
        </mxCell>
        <mxCell id="bLMXLw1mkQ4U77lT0LIt-205" value="" style="ellipse;whiteSpace=wrap;html=1;fillColor=none;strokeColor=#FF0000;" vertex="1" parent="bLMXLw1mkQ4U77lT0LIt-1">
          <mxGeometry x="418.5" y="110" width="10" height="10" as="geometry" />
        </mxCell>
        <mxCell id="bLMXLw1mkQ4U77lT0LIt-206" value="" style="endArrow=none;html=1;fillColor=#336600;exitX=0;exitY=0;exitDx=0;exitDy=0;entryX=1;entryY=1;entryDx=0;entryDy=0;strokeColor=#FF0000;" edge="1" parent="bLMXLw1mkQ4U77lT0LIt-1" source="bLMXLw1mkQ4U77lT0LIt-205" target="bLMXLw1mkQ4U77lT0LIt-205">
          <mxGeometry width="50" height="50" relative="1" as="geometry">
            <mxPoint x="500" y="120" as="sourcePoint" />
            <mxPoint x="550" y="70" as="targetPoint" />
          </mxGeometry>
        </mxCell>
        <mxCell id="bLMXLw1mkQ4U77lT0LIt-209" value="" style="endArrow=none;html=1;fillColor=#336600;exitX=1;exitY=0;exitDx=0;exitDy=0;entryX=0;entryY=1;entryDx=0;entryDy=0;strokeColor=#FF3333;" edge="1" parent="bLMXLw1mkQ4U77lT0LIt-1" source="bLMXLw1mkQ4U77lT0LIt-205" target="bLMXLw1mkQ4U77lT0LIt-205">
          <mxGeometry width="50" height="50" relative="1" as="geometry">
            <mxPoint x="429.9644660940671" y="121.46446609406718" as="sourcePoint" />
            <mxPoint x="437.03553390593277" y="128.53553390593282" as="targetPoint" />
          </mxGeometry>
        </mxCell>
        <mxCell id="bLMXLw1mkQ4U77lT0LIt-210" value="" style="ellipse;whiteSpace=wrap;html=1;fillColor=none;strokeColor=#FF0000;" vertex="1" parent="bLMXLw1mkQ4U77lT0LIt-1">
          <mxGeometry x="456.5" y="110" width="10" height="10" as="geometry" />
        </mxCell>
        <mxCell id="bLMXLw1mkQ4U77lT0LIt-211" value="" style="endArrow=none;html=1;fillColor=#336600;exitX=0;exitY=0;exitDx=0;exitDy=0;entryX=1;entryY=1;entryDx=0;entryDy=0;strokeColor=#FF0000;" edge="1" parent="bLMXLw1mkQ4U77lT0LIt-1" source="bLMXLw1mkQ4U77lT0LIt-210" target="bLMXLw1mkQ4U77lT0LIt-210">
          <mxGeometry width="50" height="50" relative="1" as="geometry">
            <mxPoint x="538" y="120" as="sourcePoint" />
            <mxPoint x="588" y="70" as="targetPoint" />
          </mxGeometry>
        </mxCell>
        <mxCell id="bLMXLw1mkQ4U77lT0LIt-212" value="" style="endArrow=none;html=1;fillColor=#336600;exitX=1;exitY=0;exitDx=0;exitDy=0;entryX=0;entryY=1;entryDx=0;entryDy=0;strokeColor=#FF3333;" edge="1" parent="bLMXLw1mkQ4U77lT0LIt-1" source="bLMXLw1mkQ4U77lT0LIt-210" target="bLMXLw1mkQ4U77lT0LIt-210">
          <mxGeometry width="50" height="50" relative="1" as="geometry">
            <mxPoint x="467.9644660940671" y="121.46446609406718" as="sourcePoint" />
            <mxPoint x="475.03553390593277" y="128.53553390593282" as="targetPoint" />
          </mxGeometry>
        </mxCell>
        <mxCell id="bLMXLw1mkQ4U77lT0LIt-213" value="" style="ellipse;whiteSpace=wrap;html=1;fillColor=none;strokeColor=#FF0000;" vertex="1" parent="bLMXLw1mkQ4U77lT0LIt-1">
          <mxGeometry x="520.5" y="110" width="10" height="10" as="geometry" />
        </mxCell>
        <mxCell id="bLMXLw1mkQ4U77lT0LIt-214" value="" style="endArrow=none;html=1;fillColor=#336600;exitX=0;exitY=0;exitDx=0;exitDy=0;entryX=1;entryY=1;entryDx=0;entryDy=0;strokeColor=#FF0000;" edge="1" parent="bLMXLw1mkQ4U77lT0LIt-1" source="bLMXLw1mkQ4U77lT0LIt-213" target="bLMXLw1mkQ4U77lT0LIt-213">
          <mxGeometry width="50" height="50" relative="1" as="geometry">
            <mxPoint x="602" y="120" as="sourcePoint" />
            <mxPoint x="652" y="70" as="targetPoint" />
          </mxGeometry>
        </mxCell>
        <mxCell id="bLMXLw1mkQ4U77lT0LIt-215" value="" style="endArrow=none;html=1;fillColor=#336600;exitX=1;exitY=0;exitDx=0;exitDy=0;entryX=0;entryY=1;entryDx=0;entryDy=0;strokeColor=#FF3333;" edge="1" parent="bLMXLw1mkQ4U77lT0LIt-1" source="bLMXLw1mkQ4U77lT0LIt-213" target="bLMXLw1mkQ4U77lT0LIt-213">
          <mxGeometry width="50" height="50" relative="1" as="geometry">
            <mxPoint x="531.9644660940671" y="121.46446609406718" as="sourcePoint" />
            <mxPoint x="539.0355339059328" y="128.53553390593282" as="targetPoint" />
          </mxGeometry>
        </mxCell>
        <mxCell id="bLMXLw1mkQ4U77lT0LIt-216" value="" style="ellipse;whiteSpace=wrap;html=1;fillColor=none;strokeColor=#FF0000;" vertex="1" parent="bLMXLw1mkQ4U77lT0LIt-1">
          <mxGeometry x="560.5" y="110" width="10" height="10" as="geometry" />
        </mxCell>
        <mxCell id="bLMXLw1mkQ4U77lT0LIt-217" value="" style="endArrow=none;html=1;fillColor=#336600;exitX=0;exitY=0;exitDx=0;exitDy=0;entryX=1;entryY=1;entryDx=0;entryDy=0;strokeColor=#FF0000;" edge="1" parent="bLMXLw1mkQ4U77lT0LIt-1" source="bLMXLw1mkQ4U77lT0LIt-216" target="bLMXLw1mkQ4U77lT0LIt-216">
          <mxGeometry width="50" height="50" relative="1" as="geometry">
            <mxPoint x="642" y="120" as="sourcePoint" />
            <mxPoint x="692" y="70" as="targetPoint" />
          </mxGeometry>
        </mxCell>
        <mxCell id="bLMXLw1mkQ4U77lT0LIt-218" value="" style="endArrow=none;html=1;fillColor=#336600;exitX=1;exitY=0;exitDx=0;exitDy=0;entryX=0;entryY=1;entryDx=0;entryDy=0;strokeColor=#FF3333;" edge="1" parent="bLMXLw1mkQ4U77lT0LIt-1" source="bLMXLw1mkQ4U77lT0LIt-216" target="bLMXLw1mkQ4U77lT0LIt-216">
          <mxGeometry width="50" height="50" relative="1" as="geometry">
            <mxPoint x="571.9644660940671" y="121.46446609406718" as="sourcePoint" />
            <mxPoint x="579.0355339059328" y="128.53553390593282" as="targetPoint" />
          </mxGeometry>
        </mxCell>
        <mxCell id="bLMXLw1mkQ4U77lT0LIt-219" value="" style="ellipse;whiteSpace=wrap;html=1;fillColor=none;strokeColor=#FF0000;" vertex="1" parent="bLMXLw1mkQ4U77lT0LIt-1">
          <mxGeometry x="651.5" y="110" width="10" height="10" as="geometry" />
        </mxCell>
        <mxCell id="bLMXLw1mkQ4U77lT0LIt-220" value="" style="endArrow=none;html=1;fillColor=#336600;exitX=0;exitY=0;exitDx=0;exitDy=0;entryX=1;entryY=1;entryDx=0;entryDy=0;strokeColor=#FF0000;" edge="1" parent="bLMXLw1mkQ4U77lT0LIt-1" source="bLMXLw1mkQ4U77lT0LIt-219" target="bLMXLw1mkQ4U77lT0LIt-219">
          <mxGeometry width="50" height="50" relative="1" as="geometry">
            <mxPoint x="733" y="120" as="sourcePoint" />
            <mxPoint x="783" y="70" as="targetPoint" />
          </mxGeometry>
        </mxCell>
        <mxCell id="bLMXLw1mkQ4U77lT0LIt-221" value="" style="endArrow=none;html=1;fillColor=#336600;exitX=1;exitY=0;exitDx=0;exitDy=0;entryX=0;entryY=1;entryDx=0;entryDy=0;strokeColor=#FF3333;" edge="1" parent="bLMXLw1mkQ4U77lT0LIt-1" source="bLMXLw1mkQ4U77lT0LIt-219" target="bLMXLw1mkQ4U77lT0LIt-219">
          <mxGeometry width="50" height="50" relative="1" as="geometry">
            <mxPoint x="662.9644660940671" y="121.46446609406718" as="sourcePoint" />
            <mxPoint x="670.0355339059328" y="128.53553390593282" as="targetPoint" />
          </mxGeometry>
        </mxCell>
        <mxCell id="bLMXLw1mkQ4U77lT0LIt-222" value="" style="ellipse;whiteSpace=wrap;html=1;fillColor=none;strokeColor=#FF0000;" vertex="1" parent="bLMXLw1mkQ4U77lT0LIt-1">
          <mxGeometry x="625.5" y="138" width="10" height="10" as="geometry" />
        </mxCell>
        <mxCell id="bLMXLw1mkQ4U77lT0LIt-223" value="" style="endArrow=none;html=1;fillColor=#336600;exitX=0;exitY=0;exitDx=0;exitDy=0;entryX=1;entryY=1;entryDx=0;entryDy=0;strokeColor=#FF0000;" edge="1" parent="bLMXLw1mkQ4U77lT0LIt-1" source="bLMXLw1mkQ4U77lT0LIt-222" target="bLMXLw1mkQ4U77lT0LIt-222">
          <mxGeometry width="50" height="50" relative="1" as="geometry">
            <mxPoint x="707" y="148" as="sourcePoint" />
            <mxPoint x="757" y="98" as="targetPoint" />
          </mxGeometry>
        </mxCell>
        <mxCell id="bLMXLw1mkQ4U77lT0LIt-224" value="" style="endArrow=none;html=1;fillColor=#336600;exitX=1;exitY=0;exitDx=0;exitDy=0;entryX=0;entryY=1;entryDx=0;entryDy=0;strokeColor=#FF3333;" edge="1" parent="bLMXLw1mkQ4U77lT0LIt-1" source="bLMXLw1mkQ4U77lT0LIt-222" target="bLMXLw1mkQ4U77lT0LIt-222">
          <mxGeometry width="50" height="50" relative="1" as="geometry">
            <mxPoint x="636.9644660940671" y="149.46446609406718" as="sourcePoint" />
            <mxPoint x="644.0355339059328" y="156.53553390593282" as="targetPoint" />
          </mxGeometry>
        </mxCell>
        <mxCell id="bLMXLw1mkQ4U77lT0LIt-225" value="" style="ellipse;whiteSpace=wrap;html=1;fillColor=none;strokeColor=#FF0000;" vertex="1" parent="bLMXLw1mkQ4U77lT0LIt-1">
          <mxGeometry x="486.5" y="83" width="10" height="10" as="geometry" />
        </mxCell>
        <mxCell id="bLMXLw1mkQ4U77lT0LIt-226" value="" style="endArrow=none;html=1;fillColor=#336600;exitX=0;exitY=0;exitDx=0;exitDy=0;entryX=1;entryY=1;entryDx=0;entryDy=0;strokeColor=#FF0000;" edge="1" parent="bLMXLw1mkQ4U77lT0LIt-1" source="bLMXLw1mkQ4U77lT0LIt-225" target="bLMXLw1mkQ4U77lT0LIt-225">
          <mxGeometry width="50" height="50" relative="1" as="geometry">
            <mxPoint x="568" y="93" as="sourcePoint" />
            <mxPoint x="618" y="43" as="targetPoint" />
          </mxGeometry>
        </mxCell>
        <mxCell id="bLMXLw1mkQ4U77lT0LIt-227" value="" style="endArrow=none;html=1;fillColor=#336600;exitX=1;exitY=0;exitDx=0;exitDy=0;entryX=0;entryY=1;entryDx=0;entryDy=0;strokeColor=#FF3333;" edge="1" parent="bLMXLw1mkQ4U77lT0LIt-1" source="bLMXLw1mkQ4U77lT0LIt-225" target="bLMXLw1mkQ4U77lT0LIt-225">
          <mxGeometry width="50" height="50" relative="1" as="geometry">
            <mxPoint x="497.9644660940671" y="94.46446609406718" as="sourcePoint" />
            <mxPoint x="505.03553390593277" y="101.53553390593282" as="targetPoint" />
          </mxGeometry>
        </mxCell>
        <mxCell id="bLMXLw1mkQ4U77lT0LIt-228" value="" style="ellipse;whiteSpace=wrap;html=1;strokeColor=#FF0000;fillColor=#66CC00;" vertex="1" parent="bLMXLw1mkQ4U77lT0LIt-1">
          <mxGeometry x="585" y="138" width="10" height="10" as="geometry" />
        </mxCell>
      </root>
    </mxGraphModel>
  </diagram>
</mxfile>
